<svg xmlns="http://www.w3.org/2000/svg" width="10" height="10" viewBox="0 0 10 10" fill="none">
  <path fill-rule="evenodd" clip-rule="evenodd" d="M8.57132 3.57143C8.57132 5.29926 7.34435 6.74051 5.71418 7.07142V7.85714H7.14275V9.28571H5.71418V10H4.28561V9.28571H2.85704V7.85714H4.28561V7.07142C2.65544 6.74051 1.42847 5.29926 1.42847 3.57143C1.42847 1.59898 3.02745 0 4.9999 0C6.97234 0 8.57132 1.59898 8.57132 3.57143ZM4.9999 5.71429C6.18336 5.71429 7.14275 4.7549 7.14275 3.57143C7.14275 2.38796 6.18336 1.42857 4.9999 1.42857C3.81643 1.42857 2.85704 2.38796 2.85704 3.57143C2.85704 4.7549 3.81643 5.71429 4.9999 5.71429Z" fill="white"/>
</svg>