<svg width="15" height="15" viewBox="0 0 15 15" fill="none" xmlns="http://www.w3.org/2000/svg">
<path d="M7.80468 14.1901C7.68963 14.1901 7.57461 14.1462 7.48684 14.0584L1.19106 7.76267C-0.397011 6.17456 -0.397011 3.59056 1.19106 2.00248C2.78276 0.410785 5.35929 0.410476 6.95125 2.00248L13.4206 8.47177C14.5741 9.62531 14.5741 11.5022 13.4206 12.6558C12.2671 13.8093 10.3901 13.8094 9.23657 12.6558L3.63094 7.0501C2.92686 6.346 2.92686 5.20038 3.63094 4.49633C4.33662 3.79062 5.47889 3.79051 6.18471 4.49633L11.5534 9.86501C11.7289 10.0405 11.7289 10.3252 11.5534 10.5007C11.3778 10.6763 11.0932 10.6763 10.9177 10.5007L5.54902 5.13203C5.19463 4.7777 4.62108 4.77761 4.26661 5.13203C3.91307 5.48557 3.91307 6.06086 4.26661 6.41441L9.87224 12.02C10.6753 12.823 11.9819 12.823 12.7848 12.02C13.5878 11.217 13.5878 9.91047 12.7848 9.10747L6.31555 2.63815C5.07512 1.39775 3.06736 1.39758 1.82679 2.63815C0.589222 3.87572 0.589222 5.88937 1.82676 7.12694L8.12254 13.4227C8.40658 13.7067 8.20154 14.1901 7.80468 14.1901Z" fill="#DADADA"/>
</svg>
