<svg width="48" height="46" viewBox="0 0 48 46" fill="none" xmlns="http://www.w3.org/2000/svg">
<g filter="url(#filter0_d_5536_25852)">
<path fill-rule="evenodd" clip-rule="evenodd" d="M25 38C33.2843 38 40 31.2843 40 23C40 14.7157 33.2843 8 25 8C16.7157 8 10 14.7157 10 23C10 31.2843 16.7157 38 25 38Z" fill="white"/>
</g>
<g clip-path="url(#clip0_5536_25852)">
<path d="M29.1251 21.1249C29.1776 21.1253 29.2287 21.1084 29.2707 21.0769C29.3126 21.0455 29.3431 21.0011 29.3575 20.9507C29.3719 20.9003 29.3693 20.8465 29.3503 20.7977C29.3312 20.7488 29.2966 20.7075 29.2519 20.6802C28.6235 20.2889 27.9083 20.0586 27.1697 20.0098C26.431 19.961 25.6918 20.0952 25.0174 20.4004C24.9651 20.4241 24.9189 20.4594 24.8824 20.5037C24.8459 20.548 24.8201 20.6001 24.8069 20.656C24.7937 20.7118 24.7935 20.77 24.8064 20.8259C24.8192 20.8819 24.8447 20.9341 24.8809 20.9787C25.1055 21.256 25.3032 21.5541 25.4711 21.8689C25.4953 21.9137 25.5283 21.9531 25.5682 21.9848C25.608 22.0164 25.6539 22.0396 25.703 22.0529C25.7522 22.0663 25.8035 22.0695 25.8539 22.0623C25.9043 22.0552 25.9527 22.0379 25.9961 22.0114C26.9365 21.431 28.02 21.124 29.1251 21.1249Z" fill="url(#paint0_linear_5536_25852)"/>
<path d="M26.5097 19.25C27.9649 19.25 29.1445 18.0747 29.1445 16.625C29.1445 15.1753 27.9649 14 26.5097 14C25.0546 14 23.875 15.1753 23.875 16.625C23.875 18.0747 25.0546 19.25 26.5097 19.25Z" fill="url(#paint1_linear_5536_25852)"/>
<path d="M20.4916 20C19.382 19.9975 18.3105 20.404 17.4818 21.1419C16.6531 21.8799 16.1255 22.8973 15.9999 23.9998C15.9928 24.0629 15.9992 24.1269 16.0186 24.1874C16.038 24.248 16.07 24.3037 16.1125 24.351C16.155 24.3982 16.2071 24.436 16.2652 24.4616C16.3234 24.4873 16.3863 24.5004 16.4499 24.5H23.5081C23.576 24.5 23.6427 24.4816 23.7009 24.4468C23.7592 24.4119 23.8068 24.3619 23.8389 24.302C24.0522 23.9033 24.3098 23.5299 24.6069 23.189C24.6527 23.1365 24.6831 23.0723 24.6945 23.0036C24.7059 22.9348 24.6979 22.8642 24.6714 22.7998C24.3309 21.9712 23.7517 21.2626 23.0074 20.7641C22.2631 20.2655 21.3874 19.9996 20.4916 20Z" fill="url(#paint2_linear_5536_25852)"/>
<path d="M20.1348 19.25C21.5899 19.25 22.7695 18.0747 22.7695 16.625C22.7695 15.1753 21.5899 14 20.1348 14C18.6796 14 17.5 15.1753 17.5 16.625C17.5 18.0747 18.6796 19.25 20.1348 19.25Z" fill="url(#paint3_linear_5536_25852)"/>
<path d="M29.125 22.25C28.1608 22.25 27.2183 22.5359 26.4166 23.0716C25.6149 23.6073 24.9901 24.3686 24.6211 25.2594C24.2521 26.1502 24.1556 27.1304 24.3437 28.0761C24.5318 29.0217 24.9961 29.8904 25.6779 30.5721C26.3596 31.2539 27.2283 31.7182 28.1739 31.9063C29.1196 32.0944 30.0998 31.9979 30.9906 31.6289C31.8814 31.2599 32.6427 30.6351 33.1784 29.8334C33.7141 29.0317 34 28.0892 34 27.125C33.9984 25.8326 33.4843 24.5935 32.5704 23.6796C31.6565 22.7657 30.4174 22.2516 29.125 22.25ZM31.75 27.875H30.25C30.1505 27.875 30.0552 27.9145 29.9848 27.9848C29.9145 28.0552 29.875 28.1505 29.875 28.25V29.75C29.875 29.9489 29.796 30.1397 29.6553 30.2803C29.5147 30.421 29.3239 30.5 29.125 30.5C28.9261 30.5 28.7353 30.421 28.5947 30.2803C28.454 30.1397 28.375 29.9489 28.375 29.75V28.25C28.375 28.1505 28.3355 28.0552 28.2652 27.9848C28.1948 27.9145 28.0995 27.875 28 27.875H26.5C26.3011 27.875 26.1103 27.796 25.9697 27.6553C25.829 27.5147 25.75 27.3239 25.75 27.125C25.75 26.9261 25.829 26.7353 25.9697 26.5947C26.1103 26.454 26.3011 26.375 26.5 26.375H28C28.0995 26.375 28.1948 26.3355 28.2652 26.2652C28.3355 26.1948 28.375 26.0995 28.375 26V24.5C28.375 24.3011 28.454 24.1103 28.5947 23.9697C28.7353 23.829 28.9261 23.75 29.125 23.75C29.3239 23.75 29.5147 23.829 29.6553 23.9697C29.796 24.1103 29.875 24.3011 29.875 24.5V26C29.875 26.0995 29.9145 26.1948 29.9848 26.2652C30.0552 26.3355 30.1505 26.375 30.25 26.375H31.75C31.9489 26.375 32.1397 26.454 32.2803 26.5947C32.421 26.7353 32.5 26.9261 32.5 27.125C32.5 27.3239 32.421 27.5147 32.2803 27.6553C32.1397 27.796 31.9489 27.875 31.75 27.875Z" fill="url(#paint4_linear_5536_25852)"/>
</g>
<defs>
<filter id="filter0_d_5536_25852" x="0" y="0" width="50" height="50" filterUnits="userSpaceOnUse" color-interpolation-filters="sRGB">
<feFlood flood-opacity="0" result="BackgroundImageFix"/>
<feColorMatrix in="SourceAlpha" type="matrix" values="0 0 0 0 0 0 0 0 0 0 0 0 0 0 0 0 0 0 127 0" result="hardAlpha"/>
<feOffset dy="2"/>
<feGaussianBlur stdDeviation="5"/>
<feColorMatrix type="matrix" values="0 0 0 0 0 0 0 0 0 0 0 0 0 0 0 0 0 0 0.128114 0"/>
<feBlend mode="normal" in2="BackgroundImageFix" result="effect1_dropShadow_5536_25852"/>
<feBlend mode="normal" in="SourceGraphic" in2="effect1_dropShadow_5536_25852" result="shape"/>
</filter>
<linearGradient id="paint0_linear_5536_25852" x1="24.8141" y1="20.0078" x2="26.3535" y2="23.4128" gradientUnits="userSpaceOnUse">
<stop stop-color="#FF62A5"/>
<stop offset="1" stop-color="#E52C6D"/>
</linearGradient>
<linearGradient id="paint1_linear_5536_25852" x1="23.8948" y1="14.0197" x2="29.1053" y2="19.2496" gradientUnits="userSpaceOnUse">
<stop stop-color="#FF62A5"/>
<stop offset="1" stop-color="#E52C6D"/>
</linearGradient>
<linearGradient id="paint2_linear_5536_25852" x1="16.0298" y1="20.0169" x2="19.6742" y2="27.0648" gradientUnits="userSpaceOnUse">
<stop stop-color="#FF62A5"/>
<stop offset="1" stop-color="#E52C6D"/>
</linearGradient>
<linearGradient id="paint3_linear_5536_25852" x1="17.5198" y1="14.0197" x2="22.7303" y2="19.2496" gradientUnits="userSpaceOnUse">
<stop stop-color="#FF62A5"/>
<stop offset="1" stop-color="#E52C6D"/>
</linearGradient>
<linearGradient id="paint4_linear_5536_25852" x1="24.2866" y1="22.2867" x2="33.9633" y2="31.9633" gradientUnits="userSpaceOnUse">
<stop stop-color="#FF62A5"/>
<stop offset="1" stop-color="#E52C6D"/>
</linearGradient>
<clipPath id="clip0_5536_25852">
<rect width="18" height="18" fill="white" transform="translate(16 14)"/>
</clipPath>
</defs>
</svg>
