<svg xmlns="http://www.w3.org/2000/svg" width="24" height="24" viewBox="0 0 24 24" fill="none">
    <g clip-path="url(#clip0_5046_277)">
        <path
            d="M14.5 6.5C16.1569 6.5 17.5 5.15685 17.5 3.5C17.5 1.84315 16.1569 0.5 14.5 0.5C12.8431 0.5 11.5 1.84315 11.5 3.5C11.5 5.15685 12.8431 6.5 14.5 6.5Z"
            fill="white" />
        <path
            d="M11.9329 11.2593C11.9483 11.2953 11.972 11.3272 12.002 11.3524C12.032 11.3776 12.0675 11.3954 12.1057 11.4043C12.1438 11.4133 12.1835 11.4132 12.2216 11.4039C12.2597 11.3947 12.2951 11.3767 12.3249 11.3513C13.7659 10.1154 15.6016 9.43609 17.4999 9.43625C17.5666 9.43625 17.6333 9.43625 17.6999 9.43625C17.7492 9.43889 17.7982 9.42688 17.8407 9.40174C17.8832 9.37659 17.9172 9.33942 17.9386 9.29493C17.96 9.25044 17.9678 9.20061 17.9609 9.15173C17.954 9.10285 17.9328 9.0571 17.8999 9.02025C17.4558 8.52048 16.9069 8.12469 16.2925 7.86103C15.678 7.59737 15.013 7.47232 14.3448 7.49475C13.6765 7.51718 13.0214 7.68656 12.426 7.99083C11.8306 8.29511 11.3096 8.72681 10.8999 9.25525C10.8655 9.30003 10.8473 9.35515 10.8482 9.41162C10.8491 9.4681 10.8691 9.5226 10.9049 9.56625C11.3259 10.0791 11.6721 10.6491 11.9329 11.2593Z"
            fill="white" />
        <path
            d="M0.5 18.0032H2.31C2.37265 18.0032 2.433 18.0267 2.47912 18.0692C2.52523 18.1116 2.55374 18.1697 2.559 18.2322L3 23.5452C3.01055 23.6704 3.06786 23.787 3.1605 23.8719C3.25315 23.9567 3.37436 24.0036 3.5 24.0032H7.5C7.62564 24.0036 7.74685 23.9567 7.8395 23.8719C7.93214 23.787 7.98945 23.6704 8 23.5452L8.443 18.2322C8.44823 18.1701 8.47646 18.1122 8.52215 18.0698C8.56784 18.0275 8.6277 18.0037 8.69 18.0032H9.261C9.29505 18.0031 9.32872 17.9961 9.35996 17.9825C9.39119 17.969 9.41933 17.9492 9.44264 17.9244C9.46596 17.8995 9.48396 17.8702 9.49554 17.8382C9.50712 17.8062 9.51204 17.7722 9.51 17.7382C9.51 17.6382 9.5 17.5382 9.5 17.4382C9.49839 15.8657 9.96334 14.3282 10.836 13.0202C10.8545 12.9922 10.8673 12.9608 10.8734 12.9278C10.8796 12.8948 10.8791 12.861 10.872 12.8282C10.5813 11.5041 9.8118 10.3341 8.71128 9.54267C7.61077 8.75119 6.25674 8.39401 4.90902 8.53967C3.56131 8.68532 2.31485 9.32355 1.40886 10.3319C0.50286 11.3402 0.00114823 12.6476 0 14.0032L0 17.5032C0 17.6358 0.0526784 17.763 0.146447 17.8567C0.240215 17.9505 0.367392 18.0032 0.5 18.0032Z"
            fill="white" />
        <path d="M5.5 7C7.433 7 9 5.433 9 3.5C9 1.567 7.433 0 5.5 0C3.567 0 2 1.567 2 3.5C2 5.433 3.567 7 5.5 7Z"
            fill="white" />
        <path
            d="M11 17.5C11 18.7856 11.3812 20.0423 12.0954 21.1112C12.8097 22.1801 13.8248 23.0132 15.0126 23.5052C16.2003 23.9972 17.5072 24.1259 18.7681 23.8751C20.029 23.6243 21.1872 23.0052 22.0962 22.0962C23.0052 21.1872 23.6243 20.029 23.8751 18.7681C24.1259 17.5072 23.9972 16.2003 23.5052 15.0126C23.0132 13.8248 22.1801 12.8097 21.1112 12.0954C20.0423 11.3812 18.7856 11 17.5 11C15.7767 11.0021 14.1247 11.6876 12.9061 12.9061C11.6876 14.1247 11.0021 15.7767 11 17.5ZM14 16.5H16.25C16.3163 16.5 16.3799 16.4737 16.4268 16.4268C16.4737 16.3799 16.5 16.3163 16.5 16.25V14C16.5 13.7348 16.6054 13.4804 16.7929 13.2929C16.9804 13.1054 17.2348 13 17.5 13C17.7652 13 18.0196 13.1054 18.2071 13.2929C18.3946 13.4804 18.5 13.7348 18.5 14V16.25C18.5 16.3163 18.5263 16.3799 18.5732 16.4268C18.6201 16.4737 18.6837 16.5 18.75 16.5H21C21.2652 16.5 21.5196 16.6054 21.7071 16.7929C21.8946 16.9804 22 17.2348 22 17.5C22 17.7652 21.8946 18.0196 21.7071 18.2071C21.5196 18.3946 21.2652 18.5 21 18.5H18.75C18.6837 18.5 18.6201 18.5263 18.5732 18.5732C18.5263 18.6201 18.5 18.6837 18.5 18.75V21C18.5 21.2652 18.3946 21.5196 18.2071 21.7071C18.0196 21.8946 17.7652 22 17.5 22C17.2348 22 16.9804 21.8946 16.7929 21.7071C16.6054 21.5196 16.5 21.2652 16.5 21V18.75C16.5 18.6837 16.4737 18.6201 16.4268 18.5732C16.3799 18.5263 16.3163 18.5 16.25 18.5H14C13.7348 18.5 13.4804 18.3946 13.2929 18.2071C13.1054 18.0196 13 17.7652 13 17.5C13 17.2348 13.1054 16.9804 13.2929 16.7929C13.4804 16.6054 13.7348 16.5 14 16.5Z"
            fill="white" />
        <path
            d="M14.5 6.5C16.1569 6.5 17.5 5.15685 17.5 3.5C17.5 1.84315 16.1569 0.5 14.5 0.5C12.8431 0.5 11.5 1.84315 11.5 3.5C11.5 5.15685 12.8431 6.5 14.5 6.5Z"
            fill="white" />
        <path
            d="M11.9329 11.2593C11.9483 11.2953 11.972 11.3272 12.002 11.3524C12.032 11.3776 12.0675 11.3954 12.1057 11.4043C12.1438 11.4133 12.1835 11.4132 12.2216 11.4039C12.2597 11.3947 12.2951 11.3767 12.3249 11.3513C13.7659 10.1154 15.6016 9.43609 17.4999 9.43625C17.5666 9.43625 17.6333 9.43625 17.6999 9.43625C17.7492 9.43889 17.7982 9.42688 17.8407 9.40174C17.8832 9.37659 17.9172 9.33942 17.9386 9.29493C17.96 9.25044 17.9678 9.20061 17.9609 9.15173C17.954 9.10285 17.9328 9.0571 17.8999 9.02025C17.4558 8.52048 16.9069 8.12469 16.2925 7.86103C15.678 7.59737 15.013 7.47232 14.3448 7.49475C13.6765 7.51718 13.0214 7.68656 12.426 7.99083C11.8306 8.29511 11.3096 8.72681 10.8999 9.25525C10.8655 9.30003 10.8473 9.35515 10.8482 9.41162C10.8491 9.4681 10.8691 9.5226 10.9049 9.56625C11.3259 10.0791 11.6721 10.6491 11.9329 11.2593Z"
            fill="white" />
        <path
            d="M0.5 18.0032H2.31C2.37265 18.0032 2.433 18.0267 2.47912 18.0692C2.52523 18.1116 2.55374 18.1697 2.559 18.2322L3 23.5452C3.01055 23.6704 3.06786 23.787 3.1605 23.8719C3.25315 23.9567 3.37436 24.0036 3.5 24.0032H7.5C7.62564 24.0036 7.74685 23.9567 7.8395 23.8719C7.93214 23.787 7.98945 23.6704 8 23.5452L8.443 18.2322C8.44823 18.1701 8.47646 18.1122 8.52215 18.0698C8.56784 18.0275 8.6277 18.0037 8.69 18.0032H9.261C9.29505 18.0031 9.32872 17.9961 9.35996 17.9825C9.39119 17.969 9.41933 17.9492 9.44264 17.9244C9.46596 17.8995 9.48396 17.8702 9.49554 17.8382C9.50712 17.8062 9.51204 17.7722 9.51 17.7382C9.51 17.6382 9.5 17.5382 9.5 17.4382C9.49839 15.8657 9.96334 14.3282 10.836 13.0202C10.8545 12.9922 10.8673 12.9608 10.8734 12.9278C10.8796 12.8948 10.8791 12.861 10.872 12.8282C10.5813 11.5041 9.8118 10.3341 8.71128 9.54267C7.61077 8.75119 6.25674 8.39401 4.90902 8.53967C3.56131 8.68532 2.31485 9.32355 1.40886 10.3319C0.50286 11.3402 0.00114823 12.6476 0 14.0032L0 17.5032C0 17.6358 0.0526784 17.763 0.146447 17.8567C0.240215 17.9505 0.367392 18.0032 0.5 18.0032Z"
            fill="white" />
        <path d="M5.5 7C7.433 7 9 5.433 9 3.5C9 1.567 7.433 0 5.5 0C3.567 0 2 1.567 2 3.5C2 5.433 3.567 7 5.5 7Z"
            fill="white" />
        <path
            d="M11 17.5C11 18.7856 11.3812 20.0423 12.0954 21.1112C12.8097 22.1801 13.8248 23.0132 15.0126 23.5052C16.2003 23.9972 17.5072 24.1259 18.7681 23.8751C20.029 23.6243 21.1872 23.0052 22.0962 22.0962C23.0052 21.1872 23.6243 20.029 23.8751 18.7681C24.1259 17.5072 23.9972 16.2003 23.5052 15.0126C23.0132 13.8248 22.1801 12.8097 21.1112 12.0954C20.0423 11.3812 18.7856 11 17.5 11C15.7767 11.0021 14.1247 11.6876 12.9061 12.9061C11.6876 14.1247 11.0021 15.7767 11 17.5ZM14 16.5H16.25C16.3163 16.5 16.3799 16.4737 16.4268 16.4268C16.4737 16.3799 16.5 16.3163 16.5 16.25V14C16.5 13.7348 16.6054 13.4804 16.7929 13.2929C16.9804 13.1054 17.2348 13 17.5 13C17.7652 13 18.0196 13.1054 18.2071 13.2929C18.3946 13.4804 18.5 13.7348 18.5 14V16.25C18.5 16.3163 18.5263 16.3799 18.5732 16.4268C18.6201 16.4737 18.6837 16.5 18.75 16.5H21C21.2652 16.5 21.5196 16.6054 21.7071 16.7929C21.8946 16.9804 22 17.2348 22 17.5C22 17.7652 21.8946 18.0196 21.7071 18.2071C21.5196 18.3946 21.2652 18.5 21 18.5H18.75C18.6837 18.5 18.6201 18.5263 18.5732 18.5732C18.5263 18.6201 18.5 18.6837 18.5 18.75V21C18.5 21.2652 18.3946 21.5196 18.2071 21.7071C18.0196 21.8946 17.7652 22 17.5 22C17.2348 22 16.9804 21.8946 16.7929 21.7071C16.6054 21.5196 16.5 21.2652 16.5 21V18.75C16.5 18.6837 16.4737 18.6201 16.4268 18.5732C16.3799 18.5263 16.3163 18.5 16.25 18.5H14C13.7348 18.5 13.4804 18.3946 13.2929 18.2071C13.1054 18.0196 13 17.7652 13 17.5C13 17.2348 13.1054 16.9804 13.2929 16.7929C13.4804 16.6054 13.7348 16.5 14 16.5Z"
            fill="white" />
    </g>
    <defs>
        <clipPath id="clip0_5046_277">
            <rect width="24" height="24" fill="white" />
        </clipPath>
    </defs>
</svg>