<svg width="18" height="20" viewBox="0 0 18 20" fill="none" xmlns="http://www.w3.org/2000/svg">
<path fill-rule="evenodd" clip-rule="evenodd" d="M17.016 13.9955C17.0674 14.0496 17.1169 14.1016 17.1637 14.152C17.3981 14.4035 17.502 14.7051 17.5001 15C17.4962 15.6406 16.993 16.25 16.2462 16.25H1.25396C0.50709 16.25 0.00435541 15.6406 5.85344e-05 15C-0.00189459 14.7051 0.102012 14.4039 0.336387 14.152C0.383262 14.1016 0.432674 14.0496 0.484126 13.9955C1.26105 13.1788 2.50318 11.8729 2.50318 8.125C2.50318 5.08984 4.63131 2.66016 7.50084 2.06406V1.25C7.50084 0.559766 8.06021 0 8.75006 0C9.4399 0 9.99928 0.559766 9.99928 1.25V2.06406C12.8688 2.66016 14.9969 5.08984 14.9969 8.125C14.9969 11.8729 16.2391 13.1788 17.016 13.9955ZM11.2489 17.5C11.2489 18.8809 10.1297 20 8.75006 20C7.37037 20 6.25123 18.8809 6.25123 17.5H11.2489Z" fill="white"/>
</svg>
