<svg width="20" height="20" viewBox="0 0 20 20" fill="none" xmlns="http://www.w3.org/2000/svg">
<path d="M0.625 5H16.875C17.2203 5 17.5 4.72031 17.5 4.375V1.875C17.5 1.52969 17.2203 1.25 16.875 1.25H0.625C0.279687 1.25 0 1.52969 0 1.875V4.375C0 4.72031 0.279687 5 0.625 5ZM19.375 8.125H3.125C2.77969 8.125 2.5 8.40469 2.5 8.75V11.25C2.5 11.5953 2.77969 11.875 3.125 11.875H19.375C19.7203 11.875 20 11.5953 20 11.25V8.75C20 8.40469 19.7203 8.125 19.375 8.125ZM16.875 15H0.625C0.279687 15 0 15.2797 0 15.625V18.125C0 18.4703 0.279687 18.75 0.625 18.75H16.875C17.2203 18.75 17.5 18.4703 17.5 18.125V15.625C17.5 15.2797 17.2203 15 16.875 15Z" fill="url(#paint0_linear_5828_27019)"/>
<defs>
<linearGradient id="paint0_linear_5828_27019" x1="10" y1="1.25" x2="10" y2="18.75" gradientUnits="userSpaceOnUse">
<stop stop-color="#FF62A5"/>
<stop offset="1" stop-color="#E52C6D"/>
</linearGradient>
</defs>
</svg>
