<svg width="21" height="18" viewBox="0 0 21 18" fill="none" xmlns="http://www.w3.org/2000/svg">
<path fill-rule="evenodd" clip-rule="evenodd" d="M0 3C0 1.34315 1.34315 0 3 0H17C18.6569 0 20 1.34315 20 3V12L20 12.0098L20.0249 12V16.5858C20.0249 17.4767 18.9478 17.9229 18.3178 17.2929L16.0249 15H3C1.34315 15 0 13.6569 0 12V3ZM4.4453 6.16795C3.98577 6.4743 3.8616 7.09517 4.16795 7.5547C5.67758 9.81915 7.64567 11 10 11C12.3543 11 14.3224 9.81915 15.8321 7.5547C16.1384 7.09517 16.0142 6.4743 15.5547 6.16795C15.0952 5.8616 14.4743 5.98577 14.1679 6.4453C13.0109 8.18085 11.6457 9 10 9C8.35433 9 6.98909 8.18085 5.83205 6.4453C5.5257 5.98577 4.90483 5.8616 4.4453 6.16795Z" fill="#FFF1F7"/>
</svg>
