<svg width="30" height="30" viewBox="0 0 30 30" fill="none" xmlns="http://www.w3.org/2000/svg">
<path d="M17.6624 14.7778L28.9585 3.48164C29.7546 2.68561 29.7546 1.39305 28.9585 0.597022C28.1625 -0.199007 26.8699 -0.199007 26.0739 0.597022L14.7778 11.8932L3.48164 0.597022C2.68561 -0.199007 1.39305 -0.199007 0.597022 0.597022C-0.199007 1.39305 -0.199007 2.68561 0.597022 3.48164L11.8932 14.7778L0.597022 26.0739C-0.199007 26.8699 -0.199007 28.1625 0.597022 28.9585C1.39305 29.7546 2.68561 29.7546 3.48164 28.9585L14.7778 17.6624L26.0739 28.9585C26.8699 29.7546 28.1625 29.7546 28.9585 28.9585C29.7546 28.1625 29.7546 26.8699 28.9585 26.0739L17.6624 14.7778Z" fill="#D9DBE9"/>
</svg>
