<svg width="16" height="16" viewBox="0 0 16 16" fill="none" xmlns="http://www.w3.org/2000/svg">
<g clip-path="url(#clip0_7960_4157)">
<path d="M7.32656 0.976562C5.38344 0.976563 3.5199 1.74847 2.1459 3.12246C0.771903 4.49646 0 6.36 0 8.30312C0 10.2463 0.771903 12.1098 2.1459 13.4838C3.5199 14.8578 5.38344 15.6297 7.32656 15.6297C9.26969 15.6297 11.1332 14.8578 12.5072 13.4838C13.8812 12.1098 14.6531 10.2463 14.6531 8.30312C14.6531 6.36 13.8812 4.49646 12.5072 3.12246C11.1332 1.74847 9.26969 0.976563 7.32656 0.976562ZM7.32656 14.1644C5.77206 14.1644 4.28123 13.5469 3.18203 12.4477C2.08284 11.3485 1.46531 9.85763 1.46531 8.30312C1.46531 6.74862 2.08284 5.25779 3.18203 4.1586C4.28123 3.0594 5.77206 2.44187 7.32656 2.44187C8.88106 2.44187 10.3719 3.0594 11.4711 4.1586C12.5703 5.25779 13.1878 6.74862 13.1878 8.30312C13.1878 9.85763 12.5703 11.3485 11.4711 12.4477C10.3719 13.5469 8.88106 14.1644 7.32656 14.1644Z" fill="#E52C6D"/>
<path fill-rule="evenodd" clip-rule="evenodd" d="M8.90841 10.4465C9.2417 10.6447 9.64253 10.7438 10.1109 10.7438C10.4397 10.7438 10.7415 10.692 11.0162 10.5884C11.2954 10.4803 11.5319 10.3294 11.7255 10.1357L11.5094 9.6831C11.3022 9.87677 11.086 10.0186 10.8608 10.1087C10.6401 10.1943 10.3947 10.2371 10.1244 10.2371C9.58849 10.2371 9.17864 10.0682 8.8949 9.73039C8.61116 9.39261 8.46929 8.91521 8.46929 8.29818C8.46929 7.68567 8.61116 7.21052 8.8949 6.87273C9.17864 6.53495 9.58849 6.36605 10.1244 6.36605C10.3947 6.36605 10.6401 6.41109 10.8608 6.50117C11.086 6.58674 11.3022 6.72636 11.5094 6.92002L11.7255 6.46739C11.5319 6.26922 11.2954 6.11834 11.0162 6.01476C10.7415 5.91117 10.4397 5.85938 10.1109 5.85938C9.64253 5.85938 9.2417 5.95846 8.90841 6.15663C8.57513 6.35479 8.31842 6.63628 8.13826 7.00109C7.96262 7.3659 7.87479 7.79826 7.87479 8.29818C7.87479 8.80261 7.96262 9.23723 8.13826 9.60204C8.31842 9.96684 8.57513 10.2483 8.90841 10.4465ZM3.90771 10.2709V10.6829H7.41393V10.2033H4.57653L5.73088 8.57413H7.38335V7.57413H6.43943L7.31935 6.33227V5.92018H3.90771V6.39983H6.64378L5.81378 7.57413H4.0055V8.57413H5.10697L3.90771 10.2709Z" fill="#E52C6D"/>
<path d="M11.0162 10.5884L11.0691 10.7287L11.0703 10.7283L11.0162 10.5884ZM11.7255 10.1357L11.8316 10.2418L11.9066 10.1668L11.8609 10.0711L11.7255 10.1357ZM11.5094 9.6831L11.6447 9.61846L11.5565 9.43372L11.4069 9.57353L11.5094 9.6831ZM10.8608 10.1087L10.915 10.2486L10.9165 10.248L10.8608 10.1087ZM8.8949 9.73039L9.00976 9.63392V9.63392L8.8949 9.73039ZM8.8949 6.87273L9.00976 6.96921V6.96921L8.8949 6.87273ZM10.8608 6.50117L10.8041 6.64009L10.8075 6.64138L10.8608 6.50117ZM11.5094 6.92002L11.4069 7.0296L11.5565 7.1694L11.6447 6.98467L11.5094 6.92002ZM11.7255 6.46739L11.8609 6.53204L11.9061 6.43749L11.8328 6.36255L11.7255 6.46739ZM11.0162 6.01476L10.9633 6.15511L10.964 6.15539L11.0162 6.01476ZM8.90841 6.15663L8.98508 6.28556V6.28556L8.90841 6.15663ZM8.13826 7.00109L8.00376 6.93467L8.00311 6.93602L8.13826 7.00109ZM8.13826 9.60204L8.00311 9.66711L8.00377 9.66845L8.13826 9.60204ZM3.90771 10.6829H3.75771V10.8329H3.90771V10.6829ZM3.90771 10.2709L3.78522 10.1843L3.75771 10.2232V10.2709H3.90771ZM7.41393 10.6829V10.8329H7.56393V10.6829H7.41393ZM7.41393 10.2033H7.56393V10.0533H7.41393V10.2033ZM4.57653 10.2033L4.45414 10.1166L4.28641 10.3533H4.57653V10.2033ZM5.73088 8.57413V8.42413H5.65332L5.60849 8.48741L5.73088 8.57413ZM7.38335 8.57413V8.72413H7.53335V8.57413H7.38335ZM7.38335 7.57413H7.53335V7.42413H7.38335V7.57413ZM6.43943 7.57413L6.31704 7.48741L6.14931 7.72413H6.43943V7.57413ZM7.31935 6.33227L7.44174 6.41899L7.46935 6.38003V6.33227H7.31935ZM7.31935 5.92018H7.46935V5.77018H7.31935V5.92018ZM3.90771 5.92018V5.77018H3.75771V5.92018H3.90771ZM3.90771 6.39983H3.75771V6.54983H3.90771V6.39983ZM6.64378 6.39983L6.76627 6.48641L6.93348 6.24983H6.64378V6.39983ZM5.81378 7.57413V7.72413H5.89144L5.93627 7.66071L5.81378 7.57413ZM4.0055 7.57413V7.42413H3.8555V7.57413H4.0055ZM4.0055 8.57413H3.8555V8.72413H4.0055V8.57413ZM5.10697 8.57413L5.22946 8.66071L5.39668 8.42413H5.10697V8.57413ZM10.1109 10.5938C9.6639 10.5938 9.29077 10.4993 8.98508 10.3176L8.83175 10.5754C9.19263 10.79 9.62117 10.8938 10.1109 10.8938V10.5938ZM10.9633 10.448C10.7074 10.5445 10.4238 10.5938 10.1109 10.5938V10.8938C10.4556 10.8938 10.7756 10.8394 11.0691 10.7287L10.9633 10.448ZM11.6195 10.0297C11.4419 10.2072 11.2236 10.3472 10.962 10.4485L11.0703 10.7283C11.3672 10.6133 11.6219 10.4516 11.8316 10.2418L11.6195 10.0297ZM11.374 9.74775L11.5902 10.2004L11.8609 10.0711L11.6447 9.61846L11.374 9.74775ZM10.9165 10.248C11.1617 10.1499 11.3933 9.99694 11.6118 9.79268L11.4069 9.57353C11.2111 9.75659 11.0104 9.88734 10.8051 9.96944L10.9165 10.248ZM10.1244 10.3871C10.4106 10.3871 10.6748 10.3417 10.915 10.2486L10.8066 9.96886C10.6055 10.0468 10.3787 10.0871 10.1244 10.0871V10.3871ZM8.78005 9.82687C9.09839 10.2058 9.55463 10.3871 10.1244 10.3871V10.0871C9.62235 10.0871 9.2589 9.93051 9.00976 9.63392L8.78005 9.82687ZM8.31929 8.29818C8.31929 8.93657 8.46602 9.45303 8.78005 9.82687L9.00976 9.63392C8.75631 9.33219 8.61929 8.89385 8.61929 8.29818H8.31929ZM8.78005 6.77625C8.46617 7.14992 8.31929 7.66399 8.31929 8.29818H8.61929C8.61929 7.70735 8.75616 7.27112 9.00976 6.96921L8.78005 6.77625ZM10.1244 6.21605C9.55463 6.21605 9.09839 6.39728 8.78005 6.77625L9.00976 6.96921C9.2589 6.67262 9.62235 6.51605 10.1244 6.51605V6.21605ZM10.9175 6.36229C10.6766 6.26395 10.4115 6.21605 10.1244 6.21605V6.51605C10.3778 6.51605 10.6037 6.55823 10.8041 6.64004L10.9175 6.36229ZM11.6118 6.81044C11.3929 6.60579 11.1604 6.45456 10.9141 6.36095L10.8075 6.64138C11.0116 6.71892 11.2115 6.84693 11.4069 7.0296L11.6118 6.81044ZM11.5902 6.40274L11.374 6.85537L11.6447 6.98467L11.8609 6.53204L11.5902 6.40274ZM10.964 6.15539C11.2241 6.25185 11.4412 6.39109 11.6183 6.57223L11.8328 6.36255C11.6225 6.14736 11.3668 5.98483 11.0684 5.87412L10.964 6.15539ZM10.1109 6.00938C10.4238 6.00938 10.7074 6.05862 10.9633 6.15511L11.0691 5.8744C10.7756 5.76372 10.4556 5.70937 10.1109 5.70937V6.00938ZM8.98508 6.28556C9.29077 6.10379 9.6639 6.00938 10.1109 6.00938V5.70937C9.62117 5.70937 9.19263 5.81312 8.83175 6.0277L8.98508 6.28556ZM8.27276 7.06751C8.44074 6.72734 8.67797 6.46816 8.98508 6.28556L8.83175 6.0277C8.4723 6.24143 8.19609 6.54522 8.00377 6.93467L8.27276 7.06751ZM8.02479 8.29818C8.02479 7.81562 8.10956 7.40647 8.27341 7.06616L8.00311 6.93602C7.81567 7.32532 7.72479 7.78091 7.72479 8.29818H8.02479ZM8.27341 9.53696C8.10964 9.19682 8.02479 8.78548 8.02479 8.29818H7.72479C7.72479 8.81974 7.81559 9.27764 8.00311 9.66711L8.27341 9.53696ZM8.98508 10.3176C8.67797 10.135 8.44074 9.87579 8.27276 9.53562L8.00377 9.66845C8.19609 10.0579 8.4723 10.3617 8.83175 10.5754L8.98508 10.3176ZM4.05771 10.6829V10.2709H3.75771V10.6829H4.05771ZM7.41393 10.5329H3.90771V10.8329H7.41393V10.5329ZM7.26393 10.2033V10.6829H7.56393V10.2033H7.26393ZM4.57653 10.3533H7.41393V10.0533H4.57653V10.3533ZM5.60849 8.48741L4.45414 10.1166L4.69892 10.29L5.85327 8.66085L5.60849 8.48741ZM7.38335 8.42413H5.73088V8.72413H7.38335V8.42413ZM7.23335 7.57413V8.57413H7.53335V7.57413H7.23335ZM6.43943 7.72413H7.38335V7.42413H6.43943V7.72413ZM7.19696 6.24555L6.31704 7.48741L6.56182 7.66085L7.44174 6.41899L7.19696 6.24555ZM7.16935 5.92018V6.33227H7.46935V5.92018H7.16935ZM3.90771 6.07018H7.31935V5.77018H3.90771V6.07018ZM4.05771 6.39983V5.92018H3.75771V6.39983H4.05771ZM6.64378 6.24983H3.90771V6.54983H6.64378V6.24983ZM5.93627 7.66071L6.76627 6.48641L6.52128 6.31325L5.69128 7.48755L5.93627 7.66071ZM4.0055 7.72413H5.81378V7.42413H4.0055V7.72413ZM4.1555 8.57413V7.57413H3.8555V8.57413H4.1555ZM5.10697 8.42413H4.0055V8.72413H5.10697V8.42413ZM4.03021 10.3574L5.22946 8.66071L4.98448 8.48755L3.78522 10.1843L4.03021 10.3574Z" fill="#E52C6D"/>
</g>
<defs>
<clipPath id="clip0_7960_4157">
<rect width="15.63" height="15.63" fill="white"/>
</clipPath>
</defs>
</svg>
