<svg width="19" height="17" viewBox="0 0 19 17" fill="none" xmlns="http://www.w3.org/2000/svg">
<path fill-rule="evenodd" clip-rule="evenodd" d="M15.3256 0.652344H3.71583C1.86101 0.652344 0.353516 1.92264 0.353516 3.48917V11.7538C0.353516 13.3204 1.86101 14.5783 3.71583 14.5783H7.35337L8.78481 15.9923C9.17772 16.3804 9.81476 16.3804 10.2077 15.9923L11.6393 14.5781L15.3245 14.5773C17.1845 14.5773 18.6869 13.3193 18.6869 11.7528V3.48917C18.6879 1.92264 17.1804 0.652344 15.3256 0.652344ZM3.24829 7.43585C3.24829 8.15485 3.8625 8.73499 4.62337 8.73499C5.38425 8.73499 5.99846 8.15382 5.99846 7.43585C5.99846 6.71685 5.38425 6.13672 4.62337 6.13672C3.8625 6.13672 3.24829 6.71685 3.24829 7.43585ZM9.44832 8.73499C8.68744 8.73499 8.07324 8.15485 8.07324 7.43585C8.07324 6.71685 8.68744 6.13672 9.44832 6.13672C10.2092 6.13672 10.8234 6.71685 10.8234 7.43585C10.8234 8.15382 10.2092 8.73499 9.44832 8.73499ZM12.8982 7.43585C12.8982 8.15485 13.5124 8.73499 14.2733 8.73499C15.0341 8.73499 15.6483 8.15382 15.6483 7.43585C15.6483 6.71685 15.0341 6.13672 14.2733 6.13672C13.5124 6.13672 12.8982 6.71685 12.8982 7.43585Z" fill="#1DA1F2"/>
</svg>
