<svg width="16" height="17" viewBox="0 0 16 17" fill="none" xmlns="http://www.w3.org/2000/svg">
<path fill-rule="evenodd" clip-rule="evenodd" d="M3.64533 3.33333L4.32199 14.7067C4.33218 14.8762 4.40666 15.0354 4.53025 15.1518C4.65383 15.2683 4.81719 15.3332 4.98699 15.3333H11.0137C11.1835 15.3332 11.3468 15.2683 11.4704 15.1518C11.594 15.0354 11.6685 14.8762 11.6787 14.7067L12.3553 3.33333H3.64533ZM13.3578 3.33333L12.677 14.7658C12.6517 15.1899 12.4655 15.5883 12.1563 15.8796C11.8472 16.1709 11.4385 16.3332 11.0137 16.3333H4.98699C4.5622 16.3332 4.15347 16.1709 3.84432 15.8796C3.53517 15.5883 3.34893 15.1899 3.32366 14.7658L2.64283 3.33333H0.916992V2.75C0.916992 2.63949 0.960891 2.53351 1.03903 2.45537C1.11717 2.37723 1.22315 2.33333 1.33366 2.33333H14.667C14.7775 2.33333 14.8835 2.37723 14.9616 2.45537C15.0398 2.53351 15.0837 2.63949 15.0837 2.75V3.33333H13.3578ZM9.66699 0.5C9.7775 0.5 9.88348 0.543899 9.96162 0.622039C10.0398 0.700179 10.0837 0.80616 10.0837 0.916667V1.5H5.91699V0.916667C5.91699 0.80616 5.96089 0.700179 6.03903 0.622039C6.11717 0.543899 6.22315 0.5 6.33366 0.5H9.66699ZM5.91699 5.5H6.91699L7.33366 13H6.33366L5.91699 5.5ZM9.08366 5.5H10.0837L9.66699 13H8.66699L9.08366 5.5Z" fill="white"/>
</svg>
