<svg width="22" height="5" viewBox="0 0 22 5" fill="none" xmlns="http://www.w3.org/2000/svg">
<path fill-rule="evenodd" clip-rule="evenodd" d="M0.987793 2.5C0.987793 3.88542 2.18355 5 3.66479 5C5.15141 5 6.34717 3.88542 6.34717 2.5C6.34717 1.11979 5.15141 0 3.66479 0C2.18355 0 0.987793 1.11979 0.987793 2.5ZM11.3264 5C9.84516 5 8.64401 3.88542 8.64401 2.5C8.64401 1.11979 9.84516 0 11.3264 0C12.8076 0 14.0034 1.11979 14.0034 2.5C14.0034 3.88542 12.8076 5 11.3264 5ZM18.9798 5C17.5001 5 16.3002 3.88542 16.3002 2.5C16.3002 1.11979 17.4947 0 18.9798 0C20.4596 0 21.6595 1.11979 21.6595 2.5C21.6595 3.88542 20.465 5 18.9798 5Z" fill="#979797"/>
</svg>
