<svg width="32" height="30" viewBox="0 0 32 30" fill="none" xmlns="http://www.w3.org/2000/svg">
<path d="M15.6958 25.1167L8.08747 29.7C7.75136 29.9139 7.39997 30.0056 7.03331 29.975C6.66664 29.9444 6.34581 29.8222 6.07081 29.6083C5.79581 29.3945 5.58192 29.1274 5.42914 28.8072C5.27636 28.4857 5.24581 28.1264 5.33747 27.7292L7.35414 19.0667L0.616641 13.2458C0.311086 12.9708 0.120419 12.6573 0.0446411 12.3053C-0.0323589 11.9546 -0.00974786 11.6111 0.112474 11.275C0.234697 10.9389 0.41803 10.6639 0.662474 10.45C0.906919 10.2361 1.24303 10.0986 1.67081 10.0375L10.5625 9.25834L14 1.1C14.1528 0.733334 14.3899 0.458334 14.7113 0.275C15.0315 0.0916669 15.3597 0 15.6958 0C16.0319 0 16.3607 0.0916669 16.6821 0.275C17.0024 0.458334 17.2389 0.733334 17.3916 1.1L20.8291 9.25834L29.7208 10.0375C30.1486 10.0986 30.4847 10.2361 30.7291 10.45C30.9736 10.6639 31.1569 10.9389 31.2791 11.275C31.4014 11.6111 31.4246 11.9546 31.3488 12.3053C31.2718 12.6573 31.0805 12.9708 30.775 13.2458L24.0375 19.0667L26.0541 27.7292C26.1458 28.1264 26.1153 28.4857 25.9625 28.8072C25.8097 29.1274 25.5958 29.3945 25.3208 29.6083C25.0458 29.8222 24.725 29.9444 24.3583 29.975C23.9916 30.0056 23.6403 29.9139 23.3041 29.7L15.6958 25.1167Z" fill="url(#paint0_linear_5887_27499)"/>
<defs>
<linearGradient id="paint0_linear_5887_27499" x1="0" y1="14.9904" x2="31.3923" y2="14.9904" gradientUnits="userSpaceOnUse">
<stop stop-color="#11998E"/>
<stop offset="1" stop-color="#38EF7D"/>
</linearGradient>
</defs>
</svg>
