<svg width="36" height="33" viewBox="0 0 36 33" fill="none" xmlns="http://www.w3.org/2000/svg">
<path d="M35.4667 10.9949H35.4489C35.3563 5.18146 30.9427 0 25.4927 0C22.3401 0 19.5618 1.7617 17.7333 4.34836C15.9048 1.7617 13.1266 0 9.97402 0C4.52397 0 0.110341 5.18146 0.0177333 10.9949H0C0 11.0314 0.00591111 11.0639 0.00591111 11.0985C0.00591111 11.1249 0 11.1513 0 11.1798C0 11.3423 0.037437 11.4663 0.0453185 11.6227C0.532 26.4376 17.5934 32.5111 17.5934 32.5111C17.5934 32.5111 34.9051 26.4437 35.4174 11.6451C35.4273 11.4805 35.4667 11.3504 35.4667 11.1798C35.4667 11.1513 35.4608 11.1249 35.4608 11.0985C35.4608 11.0599 35.4667 11.0294 35.4667 10.9949Z" fill="#E94F85"/>
</svg>
