<svg width="16" height="17" viewBox="0 0 16 17" fill="none" xmlns="http://www.w3.org/2000/svg">
<path d="M2.38283 16.6257H0.795517C0.689621 16.6322 0.583556 16.6161 0.484332 16.5786C0.385108 16.541 0.294986 16.4828 0.219923 16.4079C0.144861 16.3329 0.0865682 16.2428 0.0488988 16.1436C0.0112294 16.0445 -0.00495854 15.9384 0.00140507 15.8325V8.69005C-0.00509245 8.58407 0.0109963 8.47792 0.0486058 8.37863C0.0862154 8.27934 0.144488 8.18917 0.219565 8.1141C0.294642 8.03902 0.384811 7.98075 0.484102 7.94314C0.583393 7.90553 0.68954 7.88944 0.795517 7.89594H2.38283C2.48873 7.88945 2.59479 7.90552 2.69402 7.94307C2.79324 7.98063 2.88336 8.03882 2.95843 8.1138C3.03349 8.18877 3.09178 8.27883 3.12945 8.37801C3.16712 8.47719 3.18331 8.58324 3.17694 8.68914V15.8316C3.18344 15.9376 3.16735 16.0437 3.12974 16.143C3.09213 16.2423 3.03386 16.3325 2.95878 16.4076C2.88371 16.4826 2.79354 16.5409 2.69425 16.5785C2.59496 16.6161 2.48881 16.6322 2.38283 16.6257Z" fill="#07C35D"/>
<path d="M14.2871 7.10287H10.3192V4.71781C10.3069 3.96125 10.1218 3.21752 9.7779 2.54349C9.43404 1.86947 8.94061 1.283 8.33532 0.828936C8.21171 0.765268 8.07388 0.734212 7.93491 0.738709C7.79593 0.743206 7.6604 0.783107 7.54116 0.854634C7.42192 0.926161 7.32291 1.02694 7.25352 1.14744C7.18412 1.26793 7.14664 1.40415 7.14461 1.54318V4.71963L4.76318 7.57571V15.8299L5.00096 15.9089C5.9057 16.3864 6.91483 16.6318 7.93781 16.6231H13.4939C13.9145 16.6219 14.3175 16.4543 14.615 16.1569C14.9124 15.8595 15.08 15.4564 15.0812 15.0358L15.8744 8.68293C15.8713 8.26357 15.7028 7.86239 15.4056 7.56653C15.1084 7.27068 14.7064 7.10405 14.2871 7.10287Z" fill="#07C35D"/>
</svg>
