<svg width="20" height="19" viewBox="0 0 20 19" fill="none" xmlns="http://www.w3.org/2000/svg">
<path d="M11.2899 8.47948C10.548 7.76728 9.54195 7.36719 8.49294 7.36719C7.44392 7.36719 6.43784 7.76728 5.69592 8.47948L2.89801 11.1656C2.15607 11.8781 1.73926 12.8445 1.73926 13.8521C1.73926 14.8598 2.15607 15.8262 2.89801 16.5387C3.63994 17.2512 4.64622 17.6515 5.69547 17.6515C6.74472 17.6515 7.751 17.2512 8.49294 16.5387L9.89144 15.1956" stroke="#EF4081" stroke-width="2" stroke-linecap="round" stroke-linejoin="round"/>
<path d="M8.49316 11.1642C9.23508 11.8764 10.2412 12.2765 11.2902 12.2765C12.3392 12.2765 13.3453 11.8764 14.0872 11.1642L16.8851 8.47808C17.627 7.76557 18.0439 6.79919 18.0439 5.79154C18.0439 4.78389 17.627 3.81751 16.8851 3.10499C16.1432 2.39247 15.1369 1.99219 14.0876 1.99219C13.0384 1.99219 12.0321 2.39247 11.2902 3.10499L9.89167 4.44805" stroke="#EF4081" stroke-width="2" stroke-linecap="round" stroke-linejoin="round"/>
</svg>
