<svg width="17" height="17" viewBox="0 0 17 17" fill="none" xmlns="http://www.w3.org/2000/svg">
<g clip-path="url(#clip0_6327_156)">
<path d="M13.9995 13V14C13.9995 14.2652 13.8942 14.5196 13.7066 14.7071C13.5191 14.8946 13.2647 15 12.9995 15H9.99951" fill="#E52C6D"/>
<path d="M13.9995 13V14C13.9995 14.2652 13.8942 14.5196 13.7066 14.7071C13.5191 14.8946 13.2647 15 12.9995 15H9.99951" stroke="#E52C6D" stroke-width="1.5" stroke-linecap="round" stroke-linejoin="round"/>
<path d="M9.99951 3H12.9995C13.2647 3 13.5191 3.10536 13.7066 3.29289C13.8942 3.48043 13.9995 3.73478 13.9995 4V5" stroke="#E52C6D" stroke-width="1.5" stroke-linecap="round" stroke-linejoin="round"/>
<path d="M7.42885 15.9951L1.42885 15.1377C1.30974 15.1207 1.20076 15.0614 1.1219 14.9705C1.04304 14.8796 0.999588 14.7634 0.999512 14.6431V2.98108C0.999418 2.86658 1.03862 2.75551 1.11058 2.66645C1.18254 2.57738 1.28288 2.51571 1.39485 2.49174L7.39485 1.01108C7.46777 0.995466 7.54327 0.996366 7.6158 1.01371C7.68834 1.03106 7.75608 1.06441 7.81405 1.11133C7.87202 1.15824 7.91877 1.21754 7.95086 1.28486C7.98295 1.35218 7.99957 1.42583 7.99951 1.50041V15.5004C7.99947 15.572 7.98404 15.6428 7.95428 15.7079C7.92452 15.773 7.88112 15.831 7.82701 15.8779C7.7729 15.9248 7.70935 15.9595 7.64066 15.9798C7.57197 16 7.49973 16.0052 7.42885 15.9951V15.9951Z" stroke="#E52C6D" stroke-width="1.5" stroke-linecap="round" stroke-linejoin="round"/>
<path d="M13.9995 7L15.9995 9H10.4995" stroke="#E52C6D" stroke-width="1.5" stroke-linecap="round" stroke-linejoin="round"/>
<path d="M14 11L16 9" stroke="#E52C6D" stroke-width="1.5" stroke-linecap="round" stroke-linejoin="round"/>
<path d="M5.7495 8.25267C5.69994 8.25267 5.6515 8.2674 5.61033 8.29499C5.56916 8.32258 5.53712 8.36179 5.51828 8.40762C5.49944 8.45346 5.49465 8.50386 5.50451 8.55243C5.51438 8.601 5.53846 8.64554 5.57369 8.68039C5.60892 8.71524 5.65371 8.73884 5.70238 8.74818C5.75105 8.75753 5.8014 8.7522 5.84703 8.73286C5.89266 8.71353 5.93152 8.68107 5.95867 8.63961C5.98581 8.59815 6.00003 8.54956 5.9995 8.5C5.99959 8.46715 5.99318 8.4346 5.98065 8.40423C5.96811 8.37385 5.9497 8.34626 5.92647 8.32303C5.90324 8.2998 5.87564 8.28138 5.84527 8.26885C5.8149 8.25632 5.78235 8.24991 5.7495 8.25" stroke="#E52C6D" stroke-width="1.5" stroke-linecap="round" stroke-linejoin="round"/>
</g>
<defs>
<clipPath id="clip0_6327_156">
<rect width="16" height="16" fill="white" transform="translate(0.5 0.5)"/>
</clipPath>
</defs>
</svg>
