<svg width="20" height="15" viewBox="0 0 20 15" fill="none" xmlns="http://www.w3.org/2000/svg">
<path fill-rule="evenodd" clip-rule="evenodd" d="M0 1.5C0 0.671573 0.671573 0 1.5 0H18.5C19.3284 0 20 0.671573 20 1.5C20 2.32843 19.3284 3 18.5 3H1.5C0.671573 3 0 2.32843 0 1.5ZM2 7.5C2 6.67157 2.67157 6 3.5 6H16.5C17.3284 6 18 6.67157 18 7.5C18 8.32843 17.3284 9 16.5 9H3.5C2.67157 9 2 8.32843 2 7.5ZM5.5 12C4.67157 12 4 12.6716 4 13.5C4 14.3284 4.67157 15 5.5 15H14.5C15.3284 15 16 14.3284 16 13.5C16 12.6716 15.3284 12 14.5 12H5.5Z" fill="white"/>
</svg>
