<svg width="24" height="24" viewBox="0 0 24 24" fill="none" xmlns="http://www.w3.org/2000/svg">
<g clip-path="url(#clip0_6198_276)">
<path d="M10.781 10.521C9.66842 9.53927 8.23377 9.00078 6.75 9.008C5.2805 8.99648 3.85788 9.52465 2.75194 10.4924C1.64599 11.4601 0.933647 12.8 0.75 14.258" stroke="#E52C6D" stroke-width="1.5" stroke-linecap="round" stroke-linejoin="round"/>
<path d="M6.75 7.50781C8.61396 7.50781 10.125 5.99677 10.125 4.13281C10.125 2.26885 8.61396 0.757812 6.75 0.757812C4.88604 0.757812 3.375 2.26885 3.375 4.13281C3.375 5.99677 4.88604 7.50781 6.75 7.50781Z" stroke="#E52C6D" stroke-width="1.5" stroke-linecap="round" stroke-linejoin="round"/>
<path d="M16.5 6.00781C17.9497 6.00781 19.125 4.83256 19.125 3.38281C19.125 1.93307 17.9497 0.757812 16.5 0.757812C15.0503 0.757812 13.875 1.93307 13.875 3.38281C13.875 4.83256 15.0503 6.00781 16.5 6.00781Z" stroke="#E52C6D" stroke-width="1.5" stroke-linecap="round" stroke-linejoin="round"/>
<path d="M20.4002 9.00604C20.0422 8.38653 19.5415 7.86132 18.9399 7.47401C18.3382 7.08671 17.6529 6.84846 16.9407 6.77904C16.2285 6.70962 15.5101 6.81103 14.8449 7.07486C14.1798 7.33869 13.5872 7.75733 13.1162 8.29604" stroke="#E52C6D" stroke-width="1.5" stroke-linecap="round" stroke-linejoin="round"/>
<path d="M18.75 15.4453C18.8242 15.4453 18.8967 15.4673 18.9583 15.5085C19.02 15.5497 19.0681 15.6083 19.0965 15.6768C19.1248 15.7453 19.1323 15.8207 19.1178 15.8935C19.1033 15.9662 19.0676 16.033 19.0152 16.0855C18.9627 16.1379 18.8959 16.1736 18.8232 16.1881C18.7504 16.2026 18.675 16.1952 18.6065 16.1668C18.538 16.1384 18.4794 16.0903 18.4382 16.0287C18.397 15.967 18.375 15.8945 18.375 15.8203C18.375 15.7209 18.4145 15.6255 18.4848 15.5551C18.5552 15.4848 18.6505 15.4453 18.75 15.4453" stroke="#E52C6D" stroke-width="1.5" stroke-linecap="round" stroke-linejoin="round"/>
<path d="M18.75 11.3203C19.9435 11.3203 21.0881 11.7944 21.932 12.6383C22.7759 13.4822 23.25 14.6268 23.25 15.8203C23.25 17.7403 20.562 21.3963 19.341 22.9583C19.2708 23.0481 19.181 23.1207 19.0785 23.1707C18.976 23.2206 18.8635 23.2466 18.7495 23.2466C18.6355 23.2466 18.523 23.2206 18.4205 23.1707C18.318 23.1207 18.2282 23.0481 18.158 22.9583C16.937 21.3973 14.25 17.7413 14.25 15.8213C14.2499 15.2303 14.3662 14.645 14.5923 14.0989C14.8183 13.5528 15.1498 13.0567 15.5677 12.6387C15.9855 12.2207 16.4817 11.8892 17.0277 11.663C17.5737 11.4367 18.159 11.3203 18.75 11.3203V11.3203Z" stroke="#E52C6D" stroke-width="1.5" stroke-linecap="round" stroke-linejoin="round"/>
</g>
<defs>
<clipPath id="clip0_6198_276">
<rect width="24" height="24" fill="white"/>
</clipPath>
</defs>
</svg>
