<svg width="238" height="169" viewBox="0 0 238 169" fill="none" xmlns="http://www.w3.org/2000/svg">
<path d="M193.532 0H49.2766C42.6375 0 37.2554 5.3821 37.2554 12.0213V156.276C37.2554 162.915 42.6375 168.298 49.2766 168.298H193.532C200.171 168.298 205.553 162.915 205.553 156.276V12.0213C205.553 5.3821 200.171 0 193.532 0Z" fill="#E94F85"/>
<g filter="url(#filter0_d_8420_4711)">
<path d="M63.702 64.9141H225.989C227.583 64.9141 229.112 65.5473 230.239 66.6745C231.366 67.8017 232 69.3306 232 70.9247V100.978C232 102.572 231.366 104.101 230.239 105.228C229.112 106.355 227.583 106.988 225.989 106.988H63.702C62.1079 106.988 60.5791 106.355 59.4519 105.228C58.3247 104.101 57.6914 102.572 57.6914 100.978V70.9247C57.6914 69.3306 58.3247 67.8017 59.4519 66.6745C60.5791 65.5473 62.1079 64.9141 63.702 64.9141V64.9141Z" fill="white"/>
</g>
<path d="M152.659 74.5312H121.404C119.412 74.5312 117.798 76.1459 117.798 78.1376C117.798 80.1294 119.412 81.744 121.404 81.744H152.659C154.651 81.744 156.266 80.1294 156.266 78.1376C156.266 76.1459 154.651 74.5312 152.659 74.5312Z" fill="#FF62A5"/>
<path d="M174.298 90.1562H121.404C119.412 90.1562 117.798 91.7709 117.798 93.7626C117.798 95.7544 119.412 97.369 121.404 97.369H174.298C176.29 97.369 177.904 95.7544 177.904 93.7626C177.904 91.7709 176.29 90.1562 174.298 90.1562Z" fill="#E52C6D" fill-opacity="0.2"/>
<path d="M94.3557 97.3755C100.663 97.3755 105.776 92.2625 105.776 85.9553C105.776 79.6482 100.663 74.5352 94.3557 74.5352C88.0485 74.5352 82.9355 79.6482 82.9355 85.9553C82.9355 92.2625 88.0485 97.3755 94.3557 97.3755Z" fill="#E52C6D"/>
<path d="M92.6488 87.9531H93.4328L91.6128 83.1301H90.8078L88.9878 87.9531H89.7788L90.2408 86.7491H92.1868L92.6488 87.9531ZM91.2138 84.0611L91.9348 86.0841H90.4928L91.2138 84.0611ZM96.033 83.8161C96.558 83.8161 96.775 84.2571 96.775 84.6631C96.775 85.0761 96.537 85.5031 96.005 85.5031H94.857V83.8161H96.033ZM94.108 87.9531H94.857V86.1821H96.047C97.083 86.1821 97.517 85.4261 97.517 84.6631C97.517 83.9001 97.083 83.1301 96.047 83.1301H94.108V87.9531Z" fill="white"/>
<g filter="url(#filter1_d_8420_4711)">
<path d="M12.0106 116.609H174.298C175.892 116.609 177.421 117.243 178.548 118.37C179.675 119.497 180.308 121.026 180.308 122.62V152.673C180.308 154.267 179.675 155.796 178.548 156.923C177.421 158.051 175.892 158.684 174.298 158.684H12.0106C10.4165 158.684 8.88768 158.051 7.76047 156.923C6.63326 155.796 6 154.267 6 152.673V122.62C6 121.026 6.63326 119.497 7.76047 118.37C8.88768 117.243 10.4165 116.609 12.0106 116.609V116.609Z" fill="white"/>
</g>
<path d="M100.968 126.219H69.7123C67.7206 126.219 66.106 127.833 66.106 129.825C66.106 131.817 67.7206 133.432 69.7123 133.432H100.968C102.959 133.432 104.574 131.817 104.574 129.825C104.574 127.833 102.959 126.219 100.968 126.219Z" fill="#FF62A5"/>
<path d="M122.606 141.844H69.7123C67.7206 141.844 66.106 143.458 66.106 145.45C66.106 147.442 67.7206 149.057 69.7123 149.057H122.606C124.598 149.057 126.212 147.442 126.212 145.45C126.212 143.458 124.598 141.844 122.606 141.844Z" fill="#E52C6D" fill-opacity="0.2"/>
<path d="M27.0384 149.063C33.3456 149.063 38.4586 143.95 38.4586 137.643C38.4586 131.336 33.3456 126.223 27.0384 126.223C20.7312 126.223 15.6182 131.336 15.6182 137.643C15.6182 143.95 20.7312 149.063 27.0384 149.063Z" fill="#E52C6D"/>
<path d="M22.7536 140.065C23.8456 140.065 24.2586 139.344 24.2586 138.49V133.611H23.5376V138.49C23.5376 138.966 23.3206 139.372 22.7536 139.372C22.6976 139.372 22.3826 139.358 22.2636 139.316L22.1936 139.988C22.3756 140.03 22.6206 140.065 22.7536 140.065ZM26.9737 138.504C27.9467 138.504 28.6047 137.867 28.6047 137.062C28.6047 136.355 28.0937 135.914 27.2817 135.711L26.6727 135.557C26.0637 135.403 26.0147 135.081 26.0147 134.927C26.0147 134.486 26.4207 134.213 26.8757 134.213C27.3727 134.213 27.7297 134.521 27.7297 134.976H28.4437C28.4437 134.101 27.7647 133.555 26.8967 133.555C26.0427 133.555 25.2937 134.094 25.2937 134.941C25.2937 135.34 25.4617 135.949 26.4907 136.208L27.1067 136.362C27.4987 136.467 27.8837 136.67 27.8837 137.097C27.8837 137.496 27.5477 137.846 26.9737 137.846C26.3717 137.846 25.9867 137.447 25.9727 137.034H25.2587C25.2587 137.811 25.9447 138.504 26.9737 138.504Z" fill="white"/>
<g filter="url(#filter2_d_8420_4711)">
<path d="M174.298 13.2188H12.0106C8.69105 13.2188 6 15.9098 6 19.2294V49.2825C6 52.6021 8.69105 55.2931 12.0106 55.2931H174.298C177.617 55.2931 180.308 52.6021 180.308 49.2825V19.2294C180.308 15.9098 177.617 13.2188 174.298 13.2188Z" fill="white"/>
</g>
<path d="M98.5633 22.8398H67.308C65.3163 22.8398 63.7017 24.4545 63.7017 26.4462C63.7017 28.438 65.3163 30.0526 67.308 30.0526H98.5633C100.555 30.0526 102.17 28.438 102.17 26.4462C102.17 24.4545 100.555 22.8398 98.5633 22.8398Z" fill="#FF62A5"/>
<path d="M120.202 38.4648H67.308C65.3163 38.4648 63.7017 40.0795 63.7017 42.0712C63.7017 44.063 65.3163 45.6776 67.308 45.6776H120.202C122.193 45.6776 123.808 44.063 123.808 42.0712C123.808 40.0795 122.193 38.4648 120.202 38.4648Z" fill="#E52C6D" fill-opacity="0.2"/>
<path d="M42.6648 45.6841C48.972 45.6841 54.085 40.5711 54.085 34.2639C54.085 27.9567 48.972 22.8438 42.6648 22.8438C36.3576 22.8438 31.2446 27.9567 31.2446 34.2639C31.2446 40.5711 36.3576 45.6841 42.6648 45.6841Z" fill="#E52C6D"/>
<path d="M38.8399 36.2641C38.8399 37.0481 39.5399 37.7341 40.5409 37.7341C41.4579 37.7341 42.1089 37.1951 42.1859 36.4391C42.2629 35.7391 41.8639 35.2001 40.8839 34.9411L40.2679 34.7801C39.6939 34.6331 39.6239 34.3391 39.6239 34.1501C39.6239 33.7581 40.0089 33.4851 40.4569 33.4851C40.9609 33.4851 41.2969 33.7651 41.2969 34.2131H42.0389C42.0389 33.3311 41.3669 32.7851 40.4709 32.7851C39.6239 32.7851 38.8819 33.3381 38.8819 34.1641C38.8819 34.5911 39.0429 35.1791 40.0789 35.4591L40.6879 35.6131C41.1359 35.7181 41.4789 35.9491 41.4509 36.3971C41.4019 36.7541 41.1079 37.0551 40.5409 37.0551C39.9599 37.0551 39.6029 36.6561 39.5819 36.2641H38.8399ZM43.8814 33.5341H45.0154C45.9604 33.5341 46.4434 34.3111 46.4434 35.2631C46.4434 36.2221 45.9604 36.9781 45.0154 36.9781H43.8814V33.5341ZM45.0154 37.6641C46.3874 37.6641 47.1854 36.6351 47.1854 35.2631C47.1854 33.8911 46.3874 32.8411 45.0154 32.8411H43.1394V37.6641H45.0154Z" fill="white"/>
<defs>
<filter id="filter0_d_8420_4711" x="51.6914" y="61.9141" width="186.308" height="54.0742" filterUnits="userSpaceOnUse" color-interpolation-filters="sRGB">
<feFlood flood-opacity="0" result="BackgroundImageFix"/>
<feColorMatrix in="SourceAlpha" type="matrix" values="0 0 0 0 0 0 0 0 0 0 0 0 0 0 0 0 0 0 127 0" result="hardAlpha"/>
<feOffset dy="3"/>
<feGaussianBlur stdDeviation="3"/>
<feColorMatrix type="matrix" values="0 0 0 0 0 0 0 0 0 0 0 0 0 0 0 0 0 0 0.161 0"/>
<feBlend mode="normal" in2="BackgroundImageFix" result="effect1_dropShadow_8420_4711"/>
<feBlend mode="normal" in="SourceGraphic" in2="effect1_dropShadow_8420_4711" result="shape"/>
</filter>
<filter id="filter1_d_8420_4711" x="0" y="113.609" width="186.308" height="54.0742" filterUnits="userSpaceOnUse" color-interpolation-filters="sRGB">
<feFlood flood-opacity="0" result="BackgroundImageFix"/>
<feColorMatrix in="SourceAlpha" type="matrix" values="0 0 0 0 0 0 0 0 0 0 0 0 0 0 0 0 0 0 127 0" result="hardAlpha"/>
<feOffset dy="3"/>
<feGaussianBlur stdDeviation="3"/>
<feColorMatrix type="matrix" values="0 0 0 0 0 0 0 0 0 0 0 0 0 0 0 0 0 0 0.161 0"/>
<feBlend mode="normal" in2="BackgroundImageFix" result="effect1_dropShadow_8420_4711"/>
<feBlend mode="normal" in="SourceGraphic" in2="effect1_dropShadow_8420_4711" result="shape"/>
</filter>
<filter id="filter2_d_8420_4711" x="0" y="10.2188" width="186.308" height="54.0742" filterUnits="userSpaceOnUse" color-interpolation-filters="sRGB">
<feFlood flood-opacity="0" result="BackgroundImageFix"/>
<feColorMatrix in="SourceAlpha" type="matrix" values="0 0 0 0 0 0 0 0 0 0 0 0 0 0 0 0 0 0 127 0" result="hardAlpha"/>
<feOffset dy="3"/>
<feGaussianBlur stdDeviation="3"/>
<feColorMatrix type="matrix" values="0 0 0 0 0 0 0 0 0 0 0 0 0 0 0 0 0 0 0.161 0"/>
<feBlend mode="normal" in2="BackgroundImageFix" result="effect1_dropShadow_8420_4711"/>
<feBlend mode="normal" in="SourceGraphic" in2="effect1_dropShadow_8420_4711" result="shape"/>
</filter>
</defs>
</svg>
