<svg width="25" height="26" viewBox="0 0 25 26" fill="none" xmlns="http://www.w3.org/2000/svg">
<path d="M22.75 10.375H14.875V2.5C14.875 1.53367 14.0913 0.75 13.125 0.75H11.375C10.4087 0.75 9.625 1.53367 9.625 2.5V10.375H1.75C0.783672 10.375 0 11.1587 0 12.125V13.875C0 14.8413 0.783672 15.625 1.75 15.625H9.625V23.5C9.625 24.4663 10.4087 25.25 11.375 25.25H13.125C14.0913 25.25 14.875 24.4663 14.875 23.5V15.625H22.75C23.7163 15.625 24.5 14.8413 24.5 13.875V12.125C24.5 11.1587 23.7163 10.375 22.75 10.375Z" fill="url(#paint0_linear_15_203)"/>
<defs>
<linearGradient id="paint0_linear_15_203" x1="1.01991e-06" y1="0.399999" x2="25.2" y2="25.6" gradientUnits="userSpaceOnUse">
<stop stop-color="#FF62A5"/>
<stop offset="1" stop-color="#E52C6D"/>
</linearGradient>
</defs>
</svg>
