<svg width="7" height="9" viewBox="0 0 7 9" fill="none" xmlns="http://www.w3.org/2000/svg">
<path d="M3.32654 4.90992C4.19573 4.90992 4.90259 4.20306 4.90259 3.33387C4.90259 2.46467 4.19573 1.75781 3.32654 1.75781C2.45735 1.75781 1.75049 2.46467 1.75049 3.33387C1.75049 4.20306 2.45735 4.90992 3.32654 4.90992ZM3.32654 2.54584C3.76114 2.54584 4.11457 2.89927 4.11457 3.33387C4.11457 3.76846 3.76114 4.12189 3.32654 4.12189C2.89194 4.12189 2.53851 3.76846 2.53851 3.33387C2.53851 2.89927 2.89194 2.54584 3.32654 2.54584Z" fill="#979797"/>
<path d="M3.09793 7.98667C3.16462 8.03429 3.24451 8.05989 3.32646 8.05989C3.4084 8.05989 3.4883 8.03429 3.55498 7.98667C3.67476 7.90195 6.48999 5.86924 6.47856 3.33179C6.47856 1.5938 5.06445 0.179688 3.32646 0.179688C1.58846 0.179688 0.174351 1.5938 0.174351 3.32982C0.162925 5.86924 2.97815 7.90195 3.09793 7.98667ZM3.32646 0.967714C4.63025 0.967714 5.69054 2.028 5.69054 3.33376C5.69881 5.08239 3.96161 6.65254 3.32646 7.16751C2.6917 6.65214 0.954103 5.08161 0.962378 3.33179C0.962378 2.028 2.02267 0.967714 3.32646 0.967714Z" fill="#979797"/>
</svg>
