<svg width="24" height="24" viewBox="0 0 24 24" fill="none" xmlns="http://www.w3.org/2000/svg">
<g clip-path="url(#clip0_6198_222)">
<path d="M17.25 23.25C20.5637 23.25 23.25 20.5637 23.25 17.25C23.25 13.9363 20.5637 11.25 17.25 11.25C13.9363 11.25 11.25 13.9363 11.25 17.25C11.25 20.5637 13.9363 23.25 17.25 23.25Z" stroke="#E52C6D" stroke-width="1.5" stroke-linecap="round" stroke-linejoin="round"/>
<path d="M17.25 14.25V20.25" stroke="#E52C6D" stroke-width="1.5" stroke-linecap="round" stroke-linejoin="round"/>
<path d="M14.25 17.25H20.25" stroke="#E52C6D" stroke-width="1.5" stroke-linecap="round" stroke-linejoin="round"/>
<path d="M10.782 10.5132C9.66897 9.53155 8.23405 8.9931 6.75 9.00018C5.2805 8.98866 3.85788 9.51684 2.75194 10.4845C1.64599 11.4522 0.933647 12.7922 0.75 14.2502" stroke="#E52C6D" stroke-width="1.5" stroke-linecap="round" stroke-linejoin="round"/>
<path d="M6.75 7.5C8.61396 7.5 10.125 5.98896 10.125 4.125C10.125 2.26104 8.61396 0.75 6.75 0.75C4.88604 0.75 3.375 2.26104 3.375 4.125C3.375 5.98896 4.88604 7.5 6.75 7.5Z" stroke="#E52C6D" stroke-width="1.5" stroke-linecap="round" stroke-linejoin="round"/>
<path d="M16.5 6C17.9497 6 19.125 4.82475 19.125 3.375C19.125 1.92525 17.9497 0.75 16.5 0.75C15.0503 0.75 13.875 1.92525 13.875 3.375C13.875 4.82475 15.0503 6 16.5 6Z" stroke="#E52C6D" stroke-width="1.5" stroke-linecap="round" stroke-linejoin="round"/>
<path d="M20.4002 8.99892C20.0422 8.37921 19.5416 7.85384 18.9398 7.4664C18.338 7.07896 17.6526 6.84064 16.9402 6.77122C16.2279 6.7018 15.5093 6.80328 14.8441 7.06723C14.1789 7.33119 13.5862 7.75 13.1152 8.28892" stroke="#E52C6D" stroke-width="1.5" stroke-linecap="round" stroke-linejoin="round"/>
</g>
<defs>
<clipPath id="clip0_6198_222">
<rect width="24" height="24" fill="white"/>
</clipPath>
</defs>
</svg>
