<svg width="23" height="23" viewBox="0 0 23 23" fill="none" xmlns="http://www.w3.org/2000/svg">
    <path fill-rule="evenodd" clip-rule="evenodd" d="M10.9664 5.16557L12.2464 3.88556C13.2768 2.85356 15.0864 2.13837 16.8832 1.88076C17.6798 1.75666 18.49 1.74589 19.2896 1.84877C19.9984 1.95437 20.432 2.16237 20.6336 2.36557C20.8368 2.56717 21.0448 3.00077 21.1504 3.70956C21.2528 4.39277 21.2448 5.22957 21.1184 6.11596C20.8624 7.91277 20.1456 9.72237 19.1136 10.7528L12 17.868L10.1664 16.0344C10.0921 15.96 10.0039 15.901 9.90685 15.8607C9.80976 15.8204 9.70569 15.7996 9.60058 15.7995C9.49546 15.7994 9.39136 15.8201 9.29422 15.8602C9.19707 15.9004 9.10879 15.9593 9.03441 16.0336C8.88419 16.1836 8.79972 16.3871 8.79957 16.5994C8.79949 16.7045 8.82012 16.8086 8.86028 16.9058C8.90044 17.0029 8.95934 17.0912 9.03361 17.1656L11.4336 19.5656C11.5079 19.6401 11.5962 19.6992 11.6934 19.7395C11.7906 19.7798 11.8948 19.8006 12 19.8006C12.1052 19.8006 12.2094 19.7798 12.3066 19.7395C12.4038 19.6992 12.4921 19.6401 12.5664 19.5656L13.4416 18.6888L15.3136 21.8104C15.376 21.9149 15.4615 22.0038 15.5635 22.0703C15.6655 22.1368 15.7813 22.1791 15.9021 22.1941C16.0229 22.2091 16.1456 22.1963 16.2607 22.1567C16.3758 22.1171 16.4804 22.0517 16.5664 21.9656L19.7664 18.7656C19.8543 18.6776 19.9204 18.5703 19.9596 18.4522C19.9987 18.3342 20.0099 18.2086 19.992 18.0856L19.248 12.8824L20.2464 11.8856C21.6144 10.516 22.4192 8.32557 22.7024 6.34157C22.8464 5.33837 22.8624 4.34157 22.7328 3.47117C22.6048 2.62637 22.3232 1.79116 21.7664 1.23277C21.208 0.675965 20.3728 0.392765 19.5264 0.266365C18.5735 0.140915 17.6075 0.151689 16.6576 0.298365C14.672 0.578365 12.48 1.38317 11.1136 2.75117L10.1168 3.74957L4.91361 3.00556C4.79053 2.98773 4.66498 2.99883 4.54694 3.03799C4.4289 3.07715 4.32162 3.14329 4.23361 3.23116L1.03361 6.43117C0.94748 6.51721 0.882124 6.62178 0.842521 6.7369C0.802918 6.85202 0.790113 6.97467 0.80508 7.09549C0.820048 7.21631 0.862394 7.33212 0.928893 7.4341C0.995391 7.53608 1.08429 7.62154 1.18881 7.68396L4.30881 9.55596L3.43361 10.4312C3.35911 10.5055 3.3 10.5938 3.25967 10.691C3.21934 10.7881 3.19858 10.8923 3.19858 10.9976C3.19858 11.1028 3.21934 11.207 3.25967 11.3042C3.3 11.4014 3.35911 11.4897 3.43361 11.564L5.83361 13.964C5.90799 14.0383 5.99629 14.0973 6.09348 14.1376C6.19066 14.1779 6.29482 14.1986 6.40001 14.1986C6.5052 14.1986 6.60936 14.1779 6.70654 14.1376C6.80373 14.0973 6.89203 14.0383 6.96641 13.964C7.04079 13.8896 7.09979 13.8013 7.14005 13.7041C7.1803 13.6069 7.20102 13.5028 7.20102 13.3976C7.20102 13.2924 7.1803 13.1882 7.14005 13.091C7.09979 12.9938 7.04079 12.9055 6.96641 12.8312L5.13121 10.9992L6.16641 9.96556L10.9664 5.16557ZM16.1584 20.1096L14.6064 17.5224L17.8336 14.2968L18.352 17.916L16.1584 20.1096ZM5.47681 8.39116L8.70241 5.16557L5.08321 4.64716L2.89121 6.83916L5.47681 8.39116ZM3.76481 15.5656C3.83919 15.4913 3.89821 15.4031 3.93851 15.306C3.9788 15.2089 3.99958 15.1048 3.99966 14.9997C3.99973 14.8946 3.9791 14.7905 3.93894 14.6934C3.89878 14.5962 3.83989 14.5079 3.76561 14.4336C3.69134 14.3592 3.60314 14.3002 3.50605 14.2599C3.40896 14.2196 3.30489 14.1988 3.19978 14.1987C3.09466 14.1986 2.99056 14.2193 2.89342 14.2594C2.79627 14.2996 2.70799 14.3585 2.63361 14.4328L1.03361 16.0328C0.883604 16.183 0.799416 16.3866 0.799566 16.5989C0.799716 16.8112 0.884192 17.0148 1.03441 17.1648C1.18463 17.3148 1.38829 17.399 1.60058 17.3988C1.81287 17.3987 2.0164 17.3142 2.16641 17.164L3.76481 15.5656ZM6.16481 17.9656C6.24122 17.8918 6.30216 17.8035 6.34409 17.7059C6.38602 17.6083 6.40809 17.5033 6.40901 17.3971C6.40993 17.2909 6.38969 17.1855 6.34947 17.0872C6.30924 16.9889 6.24984 16.8996 6.17473 16.8244C6.09961 16.7493 6.01029 16.6899 5.91197 16.6497C5.81366 16.6095 5.70831 16.5892 5.60209 16.5902C5.49587 16.5911 5.39089 16.6132 5.29329 16.6551C5.19568 16.697 5.10741 16.758 5.03361 16.8344L1.83361 20.0344C1.6836 20.1846 1.59942 20.3882 1.59957 20.6005C1.59972 20.8128 1.68419 21.0164 1.83441 21.1664C1.98463 21.3164 2.18829 21.4006 2.40058 21.4004C2.61287 21.4003 2.8164 21.3158 2.96641 21.1656L6.16481 17.9656ZM8.56481 20.3656C8.63919 20.2913 8.69821 20.2031 8.73851 20.106C8.7788 20.0089 8.79958 19.9048 8.79966 19.7997C8.79973 19.6946 8.7791 19.5905 8.73894 19.4934C8.69878 19.3962 8.63989 19.3079 8.56561 19.2336C8.49133 19.1592 8.40314 19.1002 8.30605 19.0599C8.20896 19.0196 8.10489 18.9988 7.99978 18.9987C7.89466 18.9986 7.79056 19.0193 7.69342 19.0594C7.59627 19.0996 7.50799 19.1585 7.43361 19.2328L5.83361 20.8328C5.6836 20.983 5.59942 21.1866 5.59957 21.3989C5.59972 21.6112 5.68419 21.8148 5.83441 21.9648C5.98463 22.1148 6.18828 22.199 6.40058 22.1988C6.61287 22.1987 6.8164 22.1142 6.96641 21.964L8.56481 20.3656ZM15.2 9.79756C15.4624 9.79756 15.7223 9.74587 15.9648 9.64545C16.2072 9.54502 16.4275 9.39782 16.6131 9.21225C16.7987 9.02668 16.9459 8.80638 17.0463 8.56392C17.1467 8.32146 17.1984 8.0616 17.1984 7.79916C17.1984 7.53673 17.1467 7.27687 17.0463 7.03441C16.9459 6.79195 16.7987 6.57165 16.6131 6.38608C16.4275 6.20051 16.2072 6.05331 15.9648 5.95288C15.7223 5.85246 15.4624 5.80077 15.2 5.80077C14.67 5.80077 14.1617 6.01131 13.7869 6.38608C13.4122 6.76086 13.2016 7.26916 13.2016 7.79916C13.2016 8.32917 13.4122 8.83747 13.7869 9.21225C14.1617 9.58702 14.67 9.79756 15.2 9.79756Z" fill="white"/>
</svg>