<svg width="21" height="18" viewBox="0 0 21 18" fill="none" xmlns="http://www.w3.org/2000/svg">
<ellipse cx="10.4438" cy="9" rx="9.64687" ry="9" fill="#E52C6D"/>
<g clip-path="url(#clip0_5049_515)">
<path d="M11.4084 10.5H9.47905C9.21271 10.5 8.99671 10.7015 8.99671 10.95V12.75C8.99671 12.9985 9.21271 13.2 9.47905 13.2H11.4084C11.6748 13.2 11.8908 12.9985 11.8908 12.75V10.95C11.8908 10.7015 11.6748 10.5 11.4084 10.5ZM8.51436 6.45C8.51436 6.20152 8.29836 6 8.03202 6H6.10264C5.8363 6 5.6203 6.20152 5.6203 6.45V8.25C5.6203 8.49848 5.8363 8.7 6.10264 8.7H7.54545L8.64821 10.5006C8.81553 10.2325 9.12332 10.05 9.47905 10.05H9.48327L8.51436 8.46811V7.8H11.8908V6.9H8.51436V6.45ZM14.7848 6H12.8555C12.5891 6 12.3731 6.20152 12.3731 6.45V8.25C12.3731 8.49848 12.5891 8.7 12.8555 8.7H14.7848C15.0512 8.7 15.2672 8.49848 15.2672 8.25V6.45C15.2672 6.20152 15.0512 6 14.7848 6Z" fill="white"/>
</g>
<defs>
<clipPath id="clip0_5049_515">
<rect width="9.64687" height="7.2" fill="white" transform="translate(5.6203 6)"/>
</clipPath>
</defs>
</svg>
