<svg width="18" height="16" viewBox="0 0 18 16" fill="none" xmlns="http://www.w3.org/2000/svg">
<path d="M0.0482826 14.0083C0.0482826 13.2327 -0.11997 10.1718 2.32439 7.74346C3.96954 6.10915 6.43166 5.82569 9.37611 5.69642V1.70265C9.37611 1.05407 10.1436 0.711266 10.6266 1.14411L17.3739 7.19065C17.7042 7.48668 17.7068 8.00317 17.3795 8.30257L10.6323 14.4749C10.1511 14.9152 9.37611 14.5738 9.37611 13.9216V9.95116C7.50662 10.0019 6.17495 10.1194 4.96504 10.4996C2.62866 11.2338 1.24143 14.38 0.865744 15.343C0.800575 15.51 0.640778 15.6241 0.461483 15.6241C0.230698 15.6241 0.043684 15.4371 0.0444221 15.2064C0.0457611 14.7887 0.0482826 14.3101 0.0482826 14.0083Z" fill="#A0A7BA"/>
</svg>
