<svg width="17" height="17" viewBox="0 0 17 17" fill="none" xmlns="http://www.w3.org/2000/svg">
<path d="M13.9697 0.733659L15.557 0.733659C15.6629 0.727174 15.769 0.74324 15.8682 0.780796C15.9674 0.818353 16.0576 0.876542 16.1326 0.951519C16.2077 1.02649 16.266 1.11655 16.3036 1.21573C16.3413 1.31491 16.3575 1.42096 16.3511 1.52686L16.3511 8.66933C16.3576 8.7753 16.3415 8.88145 16.3039 8.98074C16.2663 9.08003 16.2081 9.1702 16.133 9.24528C16.0579 9.32036 15.9677 9.37863 15.8684 9.41624C15.7691 9.45385 15.663 9.46994 15.557 9.46344L13.9697 9.46344C13.8638 9.46992 13.7577 9.45386 13.6585 9.4163C13.5593 9.37875 13.4692 9.32056 13.3941 9.24558C13.3191 9.1706 13.2608 9.08055 13.2231 8.98137C13.1854 8.88218 13.1692 8.77614 13.1756 8.67024L13.1756 1.52777C13.1691 1.42179 13.1852 1.31565 13.2228 1.21636C13.2604 1.11706 13.3187 1.0269 13.3938 0.951819C13.4688 0.876742 13.559 0.818468 13.6583 0.780859C13.7576 0.743249 13.8637 0.727162 13.9697 0.733659Z" fill="#E52C6D"/>
<path d="M2.06546 10.2565L6.0333 10.2565L6.0333 12.6416C6.04562 13.3981 6.23079 14.1419 6.57464 14.8159C6.9185 15.4899 7.41193 16.0764 8.01722 16.5304C8.14083 16.5941 8.27865 16.6252 8.41763 16.6207C8.55661 16.6162 8.69214 16.5763 8.81138 16.5047C8.93062 16.4332 9.02963 16.3324 9.09902 16.2119C9.16842 16.0914 9.2059 15.9552 9.20793 15.8162L9.20793 12.6397L11.5894 9.78367L11.5894 1.52945L11.3516 1.45049C10.4468 0.972981 9.4377 0.727557 8.41472 0.736242L2.85867 0.736242C2.43805 0.737439 2.03501 0.905058 1.73759 1.20248C1.44017 1.4999 1.27255 1.90294 1.27135 2.32356L0.478147 8.67645C0.481253 9.0958 0.649715 9.49699 0.946929 9.79285C1.24414 10.0887 1.6461 10.2553 2.06546 10.2565Z" fill="#E52C6D"/>
</svg>
