<svg width="20" height="20" viewBox="0 0 20 20" fill="none" xmlns="http://www.w3.org/2000/svg">
<path d="M5.83358 5.83073H5.84108M10.8336 11.6641H15.8336C16.6102 11.6641 16.9986 11.6641 17.3044 11.7907C17.5068 11.8745 17.6906 11.9973 17.8455 12.1522C18.0003 12.307 18.1232 12.4909 18.2069 12.6932C18.3336 12.9991 18.3336 13.3874 18.3336 14.1641C18.3336 14.9407 18.3336 15.3291 18.2069 15.6349C18.1232 15.8372 18.0003 16.0211 17.8455 16.176C17.6906 16.3308 17.5068 16.4536 17.3044 16.5374C16.9986 16.6641 16.6102 16.6641 15.8336 16.6641H10.8336M12.5002 4.16406H15.8336C16.6102 4.16406 16.9986 4.16406 17.3044 4.29073C17.5068 4.37449 17.6906 4.49731 17.8455 4.65217C18.0003 4.80702 18.1232 4.99088 18.2069 5.19323C18.3336 5.49906 18.3336 5.8874 18.3336 6.66406C18.3336 7.44073 18.3336 7.82906 18.2069 8.1349C18.1232 8.33725 18.0003 8.5211 17.8455 8.67596C17.6906 8.83082 17.5068 8.95363 17.3044 9.0374C16.9986 9.16406 16.6102 9.16406 15.8336 9.16406H12.5002M5.83358 1.66406C4.91612 1.66379 4.02422 1.96632 3.29627 2.52474C2.56833 3.08315 2.04504 3.86621 1.8076 4.75241C1.57017 5.63861 1.63186 6.5784 1.98312 7.42596C2.33437 8.27352 2.95554 8.98144 3.75025 9.4399V14.8666C3.75025 15.5482 3.75024 15.8882 3.87691 16.1949C4.00358 16.5007 4.24525 16.7416 4.72691 17.2241L5.83358 18.3307L7.59024 16.5741C7.67108 16.4932 7.71191 16.4524 7.74524 16.4082C7.83354 16.2929 7.89013 16.1564 7.90941 16.0124C7.91691 15.9574 7.91691 15.8999 7.91691 15.7857C7.91691 15.6932 7.91691 15.6466 7.91191 15.6016C7.89893 15.4835 7.86086 15.3696 7.80024 15.2674C7.76748 15.2155 7.73187 15.1654 7.69358 15.1174L6.66691 13.7474L7.25025 12.9699C7.58025 12.5291 7.74608 12.3091 7.83108 12.0524C7.91691 11.7957 7.91691 11.5207 7.91691 10.9691V9.4399C8.71161 8.98144 9.33278 8.27352 9.68404 7.42596C10.0353 6.5784 10.097 5.63861 9.85955 4.75241C9.62212 3.86621 9.09883 3.08315 8.37088 2.52474C7.64294 1.96632 6.75104 1.66379 5.83358 1.66406Z" stroke="white" stroke-width="1.25" stroke-linecap="round" stroke-linejoin="round"/>
</svg>
