<svg width="24" height="15" viewBox="0 0 24 15" fill="none" xmlns="http://www.w3.org/2000/svg">
<path fill-rule="evenodd" clip-rule="evenodd" d="M14.9149 13.6814C15.909 14.2725 17.1045 14.568 18.5015 14.568C19.4821 14.568 20.3821 14.4135 21.2016 14.1046C22.0344 13.7822 22.7396 13.3322 23.3172 12.7546L22.6725 11.4045C22.0545 11.9822 21.4098 12.4053 20.7381 12.674C20.0799 12.9292 19.3478 13.0568 18.5418 13.0568C16.9433 13.0568 15.7209 12.5531 14.8747 11.5456C14.0284 10.5381 13.6052 9.11424 13.6052 7.27393C13.6052 5.44705 14.0284 4.02988 14.8747 3.02241C15.7209 2.01494 16.9433 1.5112 18.5418 1.5112C19.3478 1.5112 20.0799 1.64553 20.7381 1.91419C21.4098 2.16942 22.0545 2.58584 22.6725 3.16345L23.3172 1.81344C22.7396 1.2224 22.0344 0.772393 21.2016 0.463436C20.3821 0.154479 19.4821 0 18.5015 0C17.1045 0 15.909 0.295524 14.9149 0.886573C13.9209 1.47762 13.1552 2.31718 12.6179 3.40525C12.094 4.49331 11.8321 5.78287 11.8321 7.27393C11.8321 8.77841 12.094 10.0747 12.6179 11.1628C13.1552 12.2508 13.9209 13.0904 14.9149 13.6814ZM0 13.1575V14.3867H10.4575V12.9561H1.99479L5.44304 8.08942H10.3668V7.08942H6.1516L10.1754 1.41046V0.181344H0V1.61195H8.1605L4.28899 7.08942H0.292081V8.08942H3.58218L0 13.1575Z" fill="#4E4B66"/>
</svg>
