<svg width="12" height="8" viewBox="0 0 12 8" fill="none" xmlns="http://www.w3.org/2000/svg">
<path fill-rule="evenodd" clip-rule="evenodd" d="M7.16674 7.36306C7.64438 7.64706 8.21884 7.78906 8.89012 7.78906C9.36131 7.78906 9.79377 7.71483 10.1875 7.56638C10.5877 7.41147 10.9266 7.19524 11.2041 6.91769L10.8943 6.26901C10.5974 6.54655 10.2875 6.74987 9.96482 6.87897C9.64854 7.0016 9.29676 7.06292 8.90949 7.06292C8.14139 7.06292 7.55402 6.82087 7.14738 6.33678C6.74074 5.85269 6.53741 5.1685 6.53741 4.28422C6.53741 3.4064 6.74074 2.72544 7.14738 2.24134C7.55402 1.75725 8.14139 1.5152 8.90949 1.5152C9.29676 1.5152 9.64854 1.57975 9.96482 1.70884C10.2875 1.83148 10.5974 2.03157 10.8943 2.30912L11.2041 1.66043C10.9266 1.37643 10.5877 1.1602 10.1875 1.01175C9.79377 0.86329 9.36131 0.789062 8.89012 0.789062C8.21884 0.789062 7.64438 0.931064 7.16674 1.21507C6.6891 1.49907 6.32119 1.90248 6.063 2.4253C5.81127 2.94812 5.68541 3.56776 5.68541 4.28422C5.68541 4.47525 5.69419 4.6593 5.71177 4.83635H2.50185L4.88937 1.46679V0.876199H0V1.56361H3.92118L1.60798 4.83635H0.170898V5.34635H1.2475L0 7.11133V7.70193H5.02492V7.01451H0.95851L2.14049 5.34635H5.79083C5.85356 5.63743 5.94428 5.90625 6.063 6.15282C6.32119 6.67565 6.6891 7.07906 7.16674 7.36306Z" fill="#4E4B66"/>
</svg>
