<svg width="15" height="9" viewBox="0 0 15 9" fill="none" xmlns="http://www.w3.org/2000/svg">
<path fill-rule="evenodd" clip-rule="evenodd" d="M9.18909 8.3022C9.73497 8.62678 10.3915 8.78906 11.1587 8.78906C11.6972 8.78906 12.1914 8.70423 12.6414 8.53457C13.0987 8.35753 13.486 8.11041 13.8032 7.79321L13.4491 7.05186C13.1098 7.36905 12.7557 7.60142 12.3869 7.74895C12.0254 7.88911 11.6234 7.95919 11.1808 7.95919C10.303 7.95919 9.6317 7.68256 9.16697 7.12931C8.70223 6.57606 8.46987 5.79413 8.46987 4.78353C8.46987 3.7803 8.70223 3.00206 9.16697 2.44881C9.6317 1.89556 10.303 1.61894 11.1808 1.61894C11.6234 1.61894 12.0254 1.6927 12.3869 1.84024C12.7557 1.9804 13.1098 2.20907 13.4491 2.52627L13.8032 1.78491C13.486 1.46034 13.0987 1.21322 12.6414 1.04356C12.1914 0.873894 11.6972 0.789062 11.1587 0.789062C10.3915 0.789062 9.73497 0.951349 9.18909 1.27592C8.64322 1.6005 8.22275 2.06154 7.92768 2.65905C7.63999 3.25656 7.49614 3.96472 7.49614 4.78353C7.49614 5.0271 7.50864 5.26073 7.53365 5.48442H3.80828L6.58639 1.56361V0.888648H0.998535V1.67426H5.47988L2.78683 5.48442H1.19385V5.99442H2.42636L0.998535 8.01451V8.68948H6.7413V7.90386H2.09398L3.44692 5.99442H7.61598C7.6877 6.32822 7.79159 6.63644 7.92768 6.91908C8.22275 7.51659 8.64322 7.97763 9.18909 8.3022Z" fill="#4E4B66"/>
<path d="M9.18909 8.3022L9.29131 8.13029L9.29131 8.13029L9.18909 8.3022ZM12.6414 8.53457L12.712 8.72171L12.7136 8.72108L12.6414 8.53457ZM13.8032 7.79321L13.9446 7.93463L14.0446 7.83463L13.9837 7.70702L13.8032 7.79321ZM13.4491 7.05186L13.6296 6.96566L13.512 6.71935L13.3126 6.90575L13.4491 7.05186ZM12.3869 7.74895L12.4592 7.93544L12.4612 7.93465L12.3869 7.74895ZM9.16697 2.44881L9.32011 2.57745L9.32011 2.57745L9.16697 2.44881ZM12.3869 1.84024L12.3113 2.02546L12.3159 2.0272L12.3869 1.84024ZM13.4491 2.52627L13.3126 2.67237L13.512 2.85878L13.6296 2.61246L13.4491 2.52627ZM13.8032 1.78491L13.9837 1.87111L14.0439 1.74504L13.9463 1.64513L13.8032 1.78491ZM12.6414 1.04356L12.5708 1.2307L12.5718 1.23107L12.6414 1.04356ZM9.18909 1.27592L9.29131 1.44783L9.29131 1.44783L9.18909 1.27592ZM7.92768 2.65905L7.74834 2.57049L7.74748 2.57229L7.92768 2.65905ZM7.53365 5.48442V5.68442H7.75725L7.73241 5.4622L7.53365 5.48442ZM3.80828 5.48442L3.6451 5.36879L3.42146 5.68442H3.80828V5.48442ZM6.58639 1.56361L6.74958 1.67924L6.78639 1.62729V1.56361H6.58639ZM6.58639 0.888648H6.78639V0.688648H6.58639V0.888648ZM0.998535 0.888648V0.688648H0.798535V0.888648H0.998535ZM0.998535 1.67426H0.798535V1.87426H0.998535V1.67426ZM5.47988 1.67426L5.6432 1.7897L5.86616 1.47426H5.47988V1.67426ZM2.78683 5.48442V5.68442H2.89038L2.95015 5.59986L2.78683 5.48442ZM1.19385 5.48442V5.28442H0.993848V5.48442H1.19385ZM1.19385 5.99442H0.993848V6.19442H1.19385V5.99442ZM2.42636 5.99442L2.58968 6.10986L2.81263 5.79442H2.42636V5.99442ZM0.998535 8.01451L0.835213 7.89907L0.798535 7.95097V8.01451H0.998535ZM0.998535 8.68948H0.798535V8.88948H0.998535V8.68948ZM6.7413 8.68948V8.88948H6.9413V8.68948H6.7413ZM6.7413 7.90386H6.9413V7.70386H6.7413V7.90386ZM2.09398 7.90386L1.93079 7.78823L1.70715 8.10386H2.09398V7.90386ZM3.44692 5.99442V5.79442H3.34351L3.28373 5.87879L3.44692 5.99442ZM7.61598 5.99442L7.81152 5.95241L7.77758 5.79442H7.61598V5.99442ZM7.92768 6.91908L7.74747 7.00584L7.74835 7.00763L7.92768 6.91908ZM11.1587 8.58906C10.42 8.58906 9.8004 8.43299 9.29131 8.13029L9.08688 8.47411C9.66954 8.82056 10.363 8.98906 11.1587 8.98906V8.58906ZM12.5708 8.34743C12.1459 8.50763 11.6759 8.58906 11.1587 8.58906V8.98906C11.7184 8.98906 12.2369 8.90083 12.712 8.72171L12.5708 8.34743ZM13.6618 7.65179C13.3661 7.94753 13.003 8.18012 12.5692 8.34805L12.7136 8.72108C13.1945 8.53494 13.606 8.27329 13.9446 7.93463L13.6618 7.65179ZM13.2687 7.13805L13.6228 7.87941L13.9837 7.70702L13.6296 6.96566L13.2687 7.13805ZM12.4612 7.93465C12.8566 7.77648 13.2313 7.52929 13.5857 7.19796L13.3126 6.90575C12.9883 7.20882 12.6549 7.42636 12.3126 7.56326L12.4612 7.93465ZM11.1808 8.15919C11.6447 8.15919 12.0717 8.0857 12.4592 7.93542L12.3146 7.56248C11.9792 7.69252 11.6021 7.75919 11.1808 7.75919V8.15919ZM9.01382 7.25795C9.52469 7.86612 10.2578 8.15919 11.1808 8.15919V7.75919C10.3481 7.75919 9.7387 7.499 9.32011 7.00067L9.01382 7.25795ZM8.26987 4.78353C8.26987 5.82262 8.50871 6.65663 9.01382 7.25795L9.32011 7.00067C8.89576 6.4955 8.66987 5.76565 8.66987 4.78353H8.26987ZM9.01382 2.32018C8.50891 2.92127 8.26987 3.75139 8.26987 4.78353H8.66987C8.66987 3.80921 8.89556 3.08286 9.32011 2.57745L9.01382 2.32018ZM11.1808 1.41894C10.2578 1.41894 9.52469 1.712 9.01382 2.32018L9.32011 2.57745C9.7387 2.07912 10.3481 1.81894 11.1808 1.81894V1.41894ZM12.4625 1.65507C12.074 1.49652 11.6459 1.41894 11.1808 1.41894V1.81894C11.6009 1.81894 11.9768 1.88889 12.3113 2.02541L12.4625 1.65507ZM13.5857 2.38016C13.2307 2.04831 12.855 1.80415 12.4579 1.65328L12.3159 2.0272C12.6565 2.15664 12.9889 2.36983 13.3126 2.67237L13.5857 2.38016ZM13.6228 1.69872L13.2687 2.44007L13.6296 2.61246L13.9837 1.87111L13.6228 1.69872ZM12.5718 1.23107C13.0036 1.39124 13.3652 1.62283 13.6602 1.9247L13.9463 1.64513C13.6069 1.29785 13.1939 1.03521 12.711 0.856044L12.5718 1.23107ZM11.1587 0.989063C11.6759 0.989063 12.1459 1.07049 12.5708 1.2307L12.712 0.856418C12.2369 0.677294 11.7184 0.589062 11.1587 0.589062V0.989063ZM9.29131 1.44783C9.8004 1.14513 10.42 0.989063 11.1587 0.989063V0.589062C10.363 0.589062 9.66954 0.757569 9.08688 1.10402L9.29131 1.44783ZM8.107 2.74761C8.38585 2.18295 8.78033 1.75165 9.29131 1.44783L9.08688 1.10402C8.5061 1.44934 8.05964 1.94013 7.74835 2.57049L8.107 2.74761ZM7.69614 4.78353C7.69614 3.98786 7.83591 3.31066 8.10788 2.74581L7.74748 2.57229C7.44406 3.20246 7.29614 3.94158 7.29614 4.78353H7.69614ZM7.73241 5.4622C7.70829 5.24646 7.69614 5.02027 7.69614 4.78353H7.29614C7.29614 5.03392 7.30899 5.27499 7.33489 5.50664L7.73241 5.4622ZM3.80828 5.68442H7.53365V5.28442H3.80828V5.68442ZM6.4232 1.44799L3.6451 5.36879L3.97147 5.60005L6.74958 1.67924L6.4232 1.44799ZM6.38639 0.888648V1.56361H6.78639V0.888648H6.38639ZM0.998535 1.08865H6.58639V0.688648H0.998535V1.08865ZM1.19854 1.67426V0.888648H0.798535V1.67426H1.19854ZM5.47988 1.47426H0.998535V1.87426H5.47988V1.47426ZM2.95015 5.59986L5.6432 1.7897L5.31656 1.55883L2.62351 5.36898L2.95015 5.59986ZM1.19385 5.68442H2.78683V5.28442H1.19385V5.68442ZM1.39385 5.99442V5.48442H0.993848V5.99442H1.39385ZM2.42636 5.79442H1.19385V6.19442H2.42636V5.79442ZM1.16186 8.12995L2.58968 6.10986L2.26303 5.87898L0.835213 7.89907L1.16186 8.12995ZM1.19854 8.68948V8.01451H0.798535V8.68948H1.19854ZM6.7413 8.48948H0.998535V8.88948H6.7413V8.48948ZM6.5413 7.90386V8.68948H6.9413V7.90386H6.5413ZM2.09398 8.10386H6.7413V7.70386H2.09398V8.10386ZM3.28373 5.87879L1.93079 7.78823L2.25716 8.01949L3.61011 6.11005L3.28373 5.87879ZM7.61598 5.79442H3.44692V6.19442H7.61598V5.79442ZM8.10788 6.83231C7.97923 6.56513 7.8802 6.27209 7.81152 5.95241L7.42044 6.03643C7.49519 6.38435 7.60395 6.70775 7.74748 7.00584L8.10788 6.83231ZM9.29131 8.13029C8.78033 7.82647 8.38585 7.39518 8.107 6.83052L7.74835 7.00763C8.05964 7.638 8.5061 8.12878 9.08688 8.47411L9.29131 8.13029Z" fill="black"/>
</svg>
